<svg width="634" height="60" viewBox="0 0 634 60" fill="none" xmlns="http://www.w3.org/2000/svg">
<g clip-path="url(#clip0_1_13410)">
<path fill-rule="evenodd" clip-rule="evenodd" d="M0.646484 20.0766H85.6465V39.9985H0.646484V20.0766Z" fill="#FFCC00"/>
<path fill-rule="evenodd" clip-rule="evenodd" d="M0.646484 33.6424H11.8492L11.2257 34.4944H0.646484V33.6424ZM0.646484 32.0506H13.0283L12.3961 32.9023H0.646484V32.0506ZM0.646484 35.2338H10.6788L10.0549 36.0772H0.646484V35.2338ZM85.6465 34.4944H74.1549L74.7761 33.6424H85.6465V34.4944ZM85.6465 36.0772H72.9755L73.606 35.2338H85.6465V36.0772ZM75.9555 32.0506H85.6465V32.9023H75.316L75.9555 32.0506ZM11.4903 36.0772L16.9671 28.6437H23.888L24.0075 28.6523L24.1015 28.6696L24.1868 28.6951L24.2552 28.721L24.3067 28.7556L24.3406 28.7984L24.3665 28.8416L24.3751 28.893V28.9621L24.3578 29.0222L24.3323 29.0913L24.2981 29.16L24.2552 29.246L24.1958 29.332L24.1271 29.4266L24.0587 29.5212L23.9816 29.6331L23.8963 29.7364L23.811 29.8569L23.7256 29.9771L23.6317 30.1063L23.5374 30.2354L23.4438 30.3646L23.3495 30.4934L23.2558 30.6226L23.1619 30.7431L23.0676 30.8636L22.9905 30.9842L22.9052 31.1044L22.8285 31.2073L22.7515 31.3109L22.709 31.3627L22.6744 31.4141L22.6406 31.4742L22.5977 31.5347L22.5722 31.5948L22.5552 31.6549L22.5463 31.7153L22.5552 31.7754L22.5722 31.8269L22.6064 31.8787L22.6661 31.9301L22.7515 31.9647L22.8541 31.9992L22.9905 32.0248L23.1619 32.0334L23.3584 32.0506H32.4654L32.3023 32.2658L32.1005 32.5155L31.8591 32.7994L31.5785 33.1088L31.2528 33.4359L30.8849 33.7716L30.4748 34.1159L30.0226 34.4512L29.5269 34.7697L28.989 35.0708L28.4076 35.3544L27.7841 35.5954L27.1177 35.7933L26.3998 35.9484L25.6478 36.043L24.8449 36.0772H11.6012H11.4903ZM42.847 32.0506L39.8823 36.0772H32.049L32.0822 36.034L32.1758 35.9052L32.3206 35.7073L32.5075 35.4493L32.7307 35.1395L32.9873 34.8039L33.2526 34.434L33.5332 34.0641L33.7985 33.6852L34.0731 33.324L34.3204 32.98L34.5525 32.6789L34.7395 32.4122L34.8842 32.223L34.9779 32.0852L35.0111 32.0506H42.847ZM54.1759 32.0506L51.2049 36.0772H43.3779L43.4111 36.034L43.5044 35.9052L43.6492 35.7073L43.8394 35.4493L44.0596 35.1395L44.3159 34.8039L44.5812 34.434L44.8647 34.0641L45.1304 33.6852L45.4016 33.324L45.649 32.98L45.8814 32.6789L46.0684 32.4122L46.2131 32.223L46.3064 32.0852L46.3426 32.0506H54.1759ZM56.7246 32.0506H56.7153L56.6973 32.0765L56.6641 32.1197L56.6279 32.1712L56.5858 32.2402L56.5283 32.3086L56.4679 32.395L56.3985 32.481L56.3295 32.5756L56.263 32.6702L56.1937 32.7648L56.1243 32.8595L56.0579 32.9541L55.9885 33.0404L55.9191 33.1261L55.8679 33.2035L55.7079 33.4531L55.5874 33.7025L55.509 33.9522L55.4848 34.2102L55.503 34.4512L55.5691 34.6923L55.6807 34.9244L55.8437 35.1395L56.0579 35.3371L56.3142 35.5181L56.6279 35.6728L56.9869 35.8106L57.3969 35.9311L57.8674 36.0085L58.3894 36.0599L58.9714 36.0772H71.5398L74.5138 32.0506H56.7246Z" fill="#D40511"/>
<path fill-rule="evenodd" clip-rule="evenodd" d="M15.3183 24.0237L12.5923 27.7229H27.5792L27.6987 27.7319L27.7927 27.7488L27.878 27.7747L27.9464 27.8003L27.9979 27.8351L28.0317 27.8776L28.0576 27.9298L28.0659 27.9812V28.033L28.0576 28.1014L28.0317 28.1705L27.9889 28.2478L27.9464 28.3252L27.8953 28.4115L27.8269 28.5062L27.7585 28.6005L27.6728 28.7037L27.5961 28.8156L27.5108 28.9361L27.4165 29.0567L27.3229 29.1858L27.2286 29.3147L27.1349 29.4438L27.0406 29.5816L26.9553 29.7018L26.8613 29.831L26.7674 29.9512L26.6817 30.0717L26.605 30.1922L26.5197 30.2955L26.4513 30.3987L26.4084 30.4502L26.3742 30.502L26.3317 30.5624L26.2972 30.6225L26.2716 30.683L26.2461 30.7431V30.8636L26.2633 30.9237L26.3062 30.9668L26.3656 31.0183L26.4513 31.0525L26.5535 31.087L26.6903 31.1129L26.8613 31.1216L27.0579 31.1388H33.141L33.15 31.1216L33.1832 31.0698L33.2343 31.001L33.3037 30.9064L33.3884 30.7862L33.491 30.6484L33.6026 30.4934L33.7321 30.3297L33.8678 30.1408L34.0037 29.9429L34.1574 29.745L34.3021 29.5385L34.4652 29.3233L34.6189 29.1085L34.7816 28.893L34.9357 28.6868L35.1226 28.3856L35.2524 28.05L35.3368 27.697L35.364 27.3185L35.3368 26.9317L35.2431 26.5442L35.1077 26.1574L34.9025 25.7872L34.6461 25.4259L34.3204 25.0989L33.9372 24.7977L33.491 24.5397L32.978 24.3249L32.4049 24.1612L31.7565 24.0579L31.0479 24.0237H15.4547H15.3183ZM54.8423 31.1388H35.6867L40.9258 24.0237H48.7588L45.7605 28.1014H49.2472L52.2544 24.0237H60.0904L54.8423 31.1388ZM70.9335 24.0237L65.6944 31.1388H57.3969L57.4573 31.0525L57.62 30.8287L57.8767 30.4761L58.2174 30.0202L58.6125 29.487L59.0557 28.8757L59.5266 28.2392L60.012 27.5768L60.5007 26.9144L60.9712 26.2779L61.4235 25.6666L61.8156 25.1334L62.1476 24.6775L62.4129 24.3249L62.5759 24.1011L62.636 24.0237H70.9335Z" fill="#D40511"/>
</g>
<g clip-path="url(#clip1_1_13410)">
<path d="M170.845 38.8033L168.311 35.9533L165.841 38.8033H160.521L165.715 32.9767L160.521 27.2133H165.968L168.565 30L171.035 27.2133H176.291L171.098 32.9767L176.355 38.8033H170.845Z" fill="#F47920"/>
<path d="M150.388 38.8033V20.5H160.522V24.5533H154.695V27.2133H160.522V31.14H154.695V34.6867H160.522V38.8033H150.388Z" fill="#F47920"/>
<path d="M146.081 20.5V27.9733H146.018C145.068 26.8967 143.865 26.5167 142.535 26.5167C139.685 26.5167 137.595 28.4167 136.835 30.95C136.011 28.1633 133.795 26.4533 130.565 26.4533C127.905 26.4533 125.815 27.6567 124.738 29.5567V27.15H119.291V24.5533H125.245V20.5H114.415V38.8033H119.291V31.14H124.168C124.041 31.71 123.915 32.28 123.915 32.9767C123.915 36.7767 126.828 39.5 130.565 39.5C133.668 39.5 135.758 38.0433 136.835 35.32H132.655C132.085 36.1433 131.641 36.3333 130.565 36.3333C129.235 36.3333 128.158 35.1933 128.158 33.8633H136.581C136.961 36.9033 139.305 39.5 142.535 39.5C143.928 39.5 145.195 38.8033 146.018 37.6633H146.081V38.8667H150.388V20.5H146.081ZM128.221 31.14C128.475 30 129.425 29.24 130.501 29.24C131.768 29.24 132.591 30 132.845 31.14H128.221ZM143.485 36.0167C141.901 36.0167 140.951 34.56 140.951 32.9767C140.951 31.33 141.775 29.7467 143.485 29.7467C145.258 29.7467 145.955 31.33 145.955 32.9767C145.955 34.56 145.195 36.0167 143.485 36.0167Z" fill="#472F92"/>
<path d="M178.508 37.03C178.508 35.8266 179.458 34.8766 180.662 34.8766C181.865 34.8766 182.815 35.8266 182.815 37.03C182.815 38.2333 181.865 39.1833 180.662 39.1833C179.458 39.2466 178.508 38.2333 178.508 37.03ZM182.435 37.03C182.435 36.0166 181.612 35.2566 180.662 35.2566C179.648 35.2566 178.888 36.08 178.888 37.03C178.888 38.0433 179.712 38.8033 180.662 38.8033C181.675 38.8666 182.435 38.0433 182.435 37.03ZM180.218 37.1566V38.2333H179.838V35.7H180.662C181.105 35.7 181.612 35.8266 181.612 36.3966C181.612 36.7133 181.422 36.9033 181.105 36.9666C181.485 37.03 181.485 37.22 181.548 37.4733C181.612 37.7266 181.612 37.98 181.675 38.2333H181.168C181.168 38.1066 181.105 37.9166 181.105 37.79C181.105 37.6 181.105 37.3466 180.978 37.22C180.852 37.0933 180.725 37.1566 180.598 37.0933H180.218V37.1566ZM180.662 36.7766C181.042 36.7766 181.105 36.5866 181.105 36.3966C181.105 36.2066 181.042 36.08 180.725 36.08H180.218V36.7133H180.662V36.7766Z" fill="#F47920"/>
</g>
<g clip-path="url(#clip2_1_13410)">
<path d="M275.258 39.9131C275.908 39.911 276.543 39.7162 277.083 39.3535C277.623 38.9907 278.043 38.4762 278.29 37.8749C278.537 37.2736 278.601 36.6125 278.473 35.9751C278.344 35.3376 278.03 34.7525 277.57 34.2935C277.109 33.8345 276.523 33.5223 275.885 33.3963C275.247 33.2703 274.586 33.3361 273.986 33.5855C273.386 33.8348 272.872 34.2565 272.511 34.7973C272.151 35.3381 271.958 35.9738 271.958 36.6239C271.96 37.4977 272.308 38.3351 272.927 38.9519C273.546 39.5688 274.384 39.9145 275.258 39.9131Z" fill="#FFD100"/>
<path d="M228.226 29.3163V33.6199H231.818C231.522 34.0057 231.142 34.3193 230.707 34.5373C230.272 34.7552 229.794 34.8718 229.307 34.8783C226.603 34.8783 225.251 33.3424 225.251 30.2421C225.251 26.819 227.036 25.0672 230.579 25.0672C232.356 25.138 234.114 25.4649 235.797 26.0378V20.8895C234.974 20.5939 234.122 20.3858 233.255 20.2687C232.264 20.0973 231.26 20.0074 230.254 20C226.739 20 223.953 20.9436 221.872 22.8298C219.79 24.716 218.734 27.2505 218.734 30.4585C218.734 33.3961 219.546 35.7142 221.168 37.4128C222.791 39.1376 224.981 40 227.74 40C230.509 40 233.054 38.5674 233.874 36.7485L233.856 39.675H237.862V29.3163H228.226ZM239.862 39.6763V20.3232H246.082V34.6357H252.869V39.6763H239.862ZM255.138 39.1912V33.9086C256.193 34.2307 257.268 34.4825 258.356 34.6624C259.4 34.8613 260.46 34.9699 261.523 34.9869C263.037 34.9869 263.822 34.6096 263.822 33.9356C263.822 33.5046 263.578 33.2883 262.469 33.0457L260.306 32.5611C256.601 31.7253 254.872 29.8657 254.872 26.7117C254.833 25.7794 255.008 24.8505 255.382 23.9958C255.757 23.1411 256.321 22.383 257.033 21.7794C258.463 20.5928 260.466 20 262.981 20C265.003 20.0446 267.014 20.2972 268.984 20.7538V25.7952C267.976 25.5388 266.957 25.3316 265.929 25.1745C264.981 25.0141 264.023 24.9241 263.063 24.9053C261.738 24.9053 260.979 25.2822 260.979 25.9562C260.979 26.3606 261.33 26.6306 262.06 26.819L264.575 27.4119C268.255 28.2747 269.956 30.161 269.956 33.3685C269.992 34.297 269.807 35.2208 269.417 36.0641C269.027 36.9074 268.442 37.6463 267.712 38.2202C266.224 39.4061 264.17 39.9991 261.548 39.9991C259.384 40.028 257.227 39.7561 255.138 39.1912Z" fill="#061AB1"/>
</g>
<g clip-path="url(#clip3_1_13410)">
<path d="M393.562 31.1831L391.784 28.0317C394.99 24.6951 398.196 21.3475 401.402 18L427.353 18.0765V18.3383C427.353 18.3383 418.575 18.6978 413.778 21.1295H402.939L393.779 31.0415L393.55 31.1721L393.561 31.1831H393.562Z" fill="white"/>
<path d="M313.646 34.0727L316.809 18.2727H323.874C327.102 18.2727 328.41 19.7558 327.821 22.7213C327.178 25.9383 324.583 27.8896 320.047 28.5661L320.145 25.9601C322.893 25.4804 324.431 24.4334 324.747 22.8088C325.009 21.5 324.474 20.8459 323.166 20.8459H319.208L316.569 34.0727H313.646Z" fill="#E41F13"/>
<path d="M332.739 31.859C334.538 31.859 335.695 30.6486 336.174 28.2279C336.643 25.8617 335.978 24.6842 334.179 24.6842C332.379 24.6842 331.234 25.8617 330.766 28.2279C330.275 30.6486 330.94 31.859 332.739 31.859ZM327.822 28.2716C328.607 24.335 330.886 22.3618 334.637 22.3618C338.387 22.3618 339.881 24.3355 339.085 28.2716C338.3 32.2082 336.021 34.1705 332.271 34.1705C328.52 34.1705 327.048 32.2076 327.822 28.2716Z" fill="#E41F13"/>
<path d="M348.768 32.6333C347.624 33.5929 346.348 34.0727 344.941 34.0727C341.255 34.0727 339.816 32.0989 340.601 28.1629C341.365 24.3683 343.731 22.4711 347.699 22.4711C348.801 22.4711 349.815 22.5804 350.731 22.7984L350.262 25.1208C349.346 24.9028 348.408 24.7935 347.46 24.7935C345.29 24.7935 343.981 25.9164 343.523 28.1629C343.043 30.5618 343.741 31.7503 345.616 31.7503C346.871 31.7503 348.07 31.2705 349.215 30.311L348.746 32.6333H348.768H348.768Z" fill="#E41F13"/>
<path d="M352.574 22.4705H361.188L360.719 24.7934L353.708 31.859H359.084L358.648 34.0727H350.033L350.469 31.859L357.459 24.7934H352.105L352.574 22.4705Z" fill="#E41F13"/>
<path d="M363.827 20.5951H365.997L366.062 22.4705H368.756L368.287 24.7929H365.91L364.841 30.1251C364.623 31.2043 364.993 31.7497 365.92 31.7497H366.891L366.422 34.0721H364.034C362.093 34.0721 361.33 33.0251 361.744 30.9426L363.805 20.5945H363.827V20.5951Z" fill="#E41F13"/>
<path d="M372.212 27.2683H375.134C376.345 27.2683 377.043 26.8541 377.217 26.0251C377.38 25.1961 376.748 24.771 375.342 24.771C373.717 24.771 372.681 25.6 372.212 27.2683ZM380.052 25.9382C379.583 28.2497 377.795 29.4054 374.687 29.4054H371.786C371.481 30.9644 372.343 31.7497 374.37 31.7497C375.908 31.7497 377.358 31.2699 378.721 30.3103L378.252 32.6327C377.042 33.5923 375.515 34.0721 373.684 34.0721C369.845 34.0721 368.319 32.0983 369.115 28.1404C369.878 24.3568 372.102 22.4705 375.81 22.4705C379.114 22.4705 380.531 23.6262 380.062 25.9377" fill="#E41F13"/>
<path d="M384.708 28.2716L381.524 22.4705H384.675L386.649 26.2L390.084 22.4705H393.453L387.968 28.2716L391.142 34.0727H387.99L386.016 30.3322L382.57 34.0727H379.202L384.708 28.2716Z" fill="#E41F13"/>
<path d="M393.562 31.1831L391.784 28.0317C394.99 24.6951 398.196 21.3475 401.402 18L427.353 18.0765V18.3383C427.353 18.3383 418.575 18.6978 413.778 21.1295L413.658 20.8896C416.667 19.3628 421.182 18.6541 424.202 18.3273L401.522 18.2618L392.111 28.0645L393.791 31.0415L393.562 31.1721V31.1831Z" fill="#E41F13"/>
<path d="M403.278 21.6421L393.987 31.7175L395.317 34.0836H399.603C399.722 34.0836 400.911 33.9962 402.547 32.3607C404.292 30.4853 407.519 25.9383 408.479 24.9678C409.438 24.0082 412.132 22.2743 416.668 21.6312H403.267L403.278 21.6421Z" fill="#E41F13"/>
<path d="M341.812 37.2453L341.081 40.8765H340.405L341.136 37.2453H341.812ZM344.265 37.2453L342.248 39.012L343.72 40.8765H342.837L341.615 39.1754L341.703 38.7393L343.404 37.2453H344.265Z" fill="#E31717"/>
<path d="M347.034 38.2158L346.5 40.8874H345.901L346.01 39.9934C345.683 40.5929 345.268 40.8874 344.767 40.8874C344.265 40.8874 344.058 40.6038 344.167 40.0262L344.527 38.2273H345.203L344.843 40.0371C344.8 40.2442 344.898 40.3536 345.138 40.3536C345.454 40.3536 345.781 40.0699 346.097 39.5033L346.359 38.2273H347.035V38.2164L347.034 38.2158Z" fill="#E31717"/>
<path d="M347.1 40.8874L347.634 38.2158H348.234L348.136 39.0661C348.441 38.4989 348.757 38.2158 349.106 38.2158L348.997 38.783C348.658 38.783 348.343 39.0557 348.037 39.6011L347.775 40.8771H347.099V40.888L347.1 40.8874Z" fill="#E31717"/>
<path d="M350.131 38.2158L349.597 40.8874H348.921L349.455 38.2158H350.131ZM350.327 37.2453L350.218 37.7797H349.542L349.651 37.2453H350.327Z" fill="#E31717"/>
<path d="M352.825 39.012C352.715 39.5464 352.301 39.8082 351.592 39.8082H350.927C350.851 40.1677 351.058 40.3426 351.527 40.3426C351.876 40.3426 352.214 40.2333 352.53 40.0153L352.421 40.5497C352.137 40.7677 351.789 40.877 351.374 40.877C350.491 40.877 350.142 40.4191 350.327 39.5142C350.501 38.6421 351.014 38.2054 351.864 38.2054C352.628 38.2054 352.944 38.4672 352.846 39.0016L352.824 39.0126L352.825 39.012ZM351.026 39.3175H351.702C351.985 39.3175 352.138 39.2191 352.181 39.0338C352.214 38.8377 352.072 38.7502 351.745 38.7502C351.375 38.7502 351.135 38.9464 351.026 39.3284V39.3175Z" fill="#E31717"/>
<path d="M352.923 40.8874L353.457 38.2158H354.057L353.958 39.0661C354.264 38.4989 354.58 38.2158 354.929 38.2158L354.82 38.783C354.481 38.783 354.166 39.0557 353.86 39.6011L353.598 40.8771H352.922V40.888L352.923 40.8874Z" fill="#E31717"/>
<path d="M355.921 40.8874L356.652 37.2562H358.277C359.018 37.2562 359.324 37.5945 359.181 38.2814C359.04 39.0229 358.44 39.4699 357.393 39.6223L357.415 39.0229C358.047 38.9136 358.396 38.6737 358.473 38.3032C358.527 37.9978 358.407 37.8453 358.113 37.8453H357.208L356.598 40.8874H355.922H355.921Z" fill="#E31717"/>
<path d="M359.149 39.5464C359.335 38.6415 359.858 38.1836 360.719 38.1836C361.58 38.1836 361.93 38.6415 361.744 39.5464C361.559 40.4513 361.036 40.8983 360.174 40.8983C359.313 40.8983 358.975 40.4513 359.149 39.5464ZM360.283 40.3754C360.697 40.3754 360.959 40.0918 361.068 39.5361C361.178 38.9907 361.025 38.718 360.61 38.718C360.196 38.718 359.935 38.9907 359.825 39.5361C359.716 40.0924 359.869 40.3754 360.283 40.3754Z" fill="#E31717"/>
<path d="M363.936 40.5497C363.674 40.7677 363.379 40.877 363.053 40.877C362.202 40.877 361.875 40.4191 362.049 39.5142C362.224 38.6421 362.769 38.2054 363.685 38.2054C363.936 38.2054 364.175 38.2273 364.383 38.282L364.273 38.8164C364.066 38.7617 363.848 38.7399 363.63 38.7399C363.128 38.7399 362.834 39.0016 362.725 39.5142C362.616 40.0596 362.78 40.3432 363.205 40.3432C363.489 40.3432 363.772 40.2339 364.034 40.0158L363.925 40.5503H363.936V40.5497Z" fill="#E31717"/>
<path d="M364.775 38.2158H366.76L366.651 38.7503L365.037 40.3748H366.269L366.171 40.8874H364.186L364.285 40.3748L365.898 38.7503H364.666L364.775 38.2158Z" fill="#E31717"/>
<path d="M367.327 37.7797H367.828V38.2158H368.461L368.351 38.7502H367.806L367.555 39.9825C367.511 40.2333 367.588 40.3529 367.806 40.3529H368.035L367.926 40.8874H367.38C366.933 40.8874 366.759 40.6475 366.857 40.1677L367.337 37.7907L367.326 37.7797H367.327Z" fill="#E31717"/>
<path d="M370.424 39.9825C370.096 40.5819 369.682 40.8765 369.18 40.8765C368.679 40.8765 368.472 40.5928 368.581 40.0153L368.94 38.2164H369.616L369.257 40.0262C369.213 40.2333 369.312 40.3426 369.551 40.3426C369.868 40.3426 370.195 40.059 370.511 39.4923L370.773 38.2164H371.449L370.914 40.888C370.784 41.5311 370.249 41.8585 369.29 41.8585C368.962 41.8585 368.679 41.8147 368.439 41.7279L368.549 41.1934C368.789 41.2809 369.072 41.324 369.399 41.324C369.901 41.324 370.184 41.1825 370.238 40.888L370.424 39.994V39.983V39.9825Z" fill="#E31717"/>
<path d="M372.692 40.8874L373.422 37.2562H375.047C375.789 37.2562 376.094 37.5945 375.952 38.2814C375.81 39.0229 375.21 39.4699 374.163 39.6223L374.185 39.0229C374.817 38.9136 375.167 38.6737 375.243 38.3032C375.298 37.9978 375.178 37.8453 374.884 37.8453H373.979L373.368 40.8874H372.692H372.692Z" fill="#E31717"/>
<path d="M375.919 39.5464C376.104 38.6415 376.628 38.1836 377.489 38.1836C378.35 38.1836 378.689 38.6415 378.514 39.5464C378.329 40.4513 377.805 40.8983 376.944 40.8983C376.083 40.8983 375.745 40.4513 375.919 39.5464ZM377.053 40.3754C377.467 40.3754 377.729 40.0918 377.838 39.5361C377.948 38.9907 377.795 38.718 377.38 38.718C376.966 38.718 376.704 38.9907 376.595 39.5361C376.486 40.0924 376.639 40.3754 377.053 40.3754Z" fill="#E31717"/>
<path d="M380.118 37.2453L379.387 40.8765H378.711L379.442 37.2453H380.118Z" fill="#E31717"/>
<path d="M380.019 40.7568L380.128 40.2005C380.401 40.3201 380.728 40.3748 381.121 40.3748C381.415 40.3748 381.579 40.2764 381.612 40.0912C381.644 39.9169 381.568 39.8404 381.372 39.8404H380.892C380.346 39.8404 380.128 39.5677 380.238 39.0223C380.347 38.466 380.805 38.183 381.59 38.183C381.928 38.183 382.233 38.2376 382.506 38.3354L382.396 38.8917C382.124 38.7721 381.818 38.7174 381.469 38.7174C381.11 38.7174 380.902 38.8158 380.87 39.001C380.837 39.1753 380.925 39.2518 381.132 39.2518H381.568C382.157 39.2518 382.407 39.5245 382.298 40.0699C382.189 40.6262 381.753 40.9092 381.001 40.9092C380.63 40.9092 380.303 40.8546 380.03 40.7568H380.019Z" fill="#E31717"/>
<path d="M382.57 40.8874L383.301 37.2562H383.977L383.639 38.9355C384.009 38.4557 384.413 38.2158 384.86 38.2158C385.405 38.2158 385.634 38.4557 385.536 38.9355C385.47 39.2737 385.166 39.5677 384.631 39.7967L385.242 40.8759H384.467L383.955 39.8726L383.998 39.6655C384.522 39.5349 384.816 39.3059 384.881 39.0114C384.914 38.8371 384.816 38.7496 384.576 38.7496C384.26 38.7496 383.922 39.0005 383.54 39.5021L383.267 40.8868H382.569L382.57 40.8874Z" fill="#E31717"/>
<path d="M386.824 38.2158L386.289 40.8874H385.613L386.148 38.2158H386.824ZM387.02 37.2453L386.91 37.7797H386.234L386.344 37.2453H387.02Z" fill="#E31717"/>
<path d="M389.516 39.012C389.407 39.5464 388.993 39.8082 388.284 39.8082H387.619C387.543 40.1677 387.75 40.3426 388.208 40.3426C388.568 40.3426 388.895 40.2333 389.211 40.0153L389.102 40.5497C388.819 40.7677 388.47 40.877 388.055 40.877C387.172 40.877 386.823 40.4191 387.008 39.5142C387.182 38.6421 387.695 38.2054 388.546 38.2054C389.309 38.2054 389.636 38.4672 389.527 39.0016L389.516 39.0126V39.012ZM387.717 39.3175H388.393C388.677 39.3175 388.83 39.2191 388.873 39.0338C388.906 38.8377 388.764 38.7502 388.437 38.7502C388.067 38.7502 387.827 38.9464 387.717 39.3284V39.3175Z" fill="#E31717"/>
<path d="M390.814 38.2158L390.324 40.6803C390.214 41.2147 389.974 41.6617 389.593 41.9994L389.135 41.6289C389.397 41.4 389.56 41.0836 389.648 40.6803L390.138 38.2158H390.814ZM391.01 37.2453L390.901 37.7797H390.225L390.334 37.2453H391.01Z" fill="#E31717"/>
</g>
<g clip-path="url(#clip4_1_13410)">
<path d="M498.793 52.7156L464.824 46.7256C464.084 46.5934 463.426 46.1734 462.995 45.5575C462.564 44.9416 462.394 44.1799 462.523 43.4393L468.514 9.47072C468.578 9.10357 468.714 8.75268 468.914 8.43818C469.114 8.12368 469.374 7.85177 469.679 7.63803C469.984 7.42429 470.329 7.27293 470.693 7.19264C471.057 7.11235 471.433 7.10471 471.8 7.17014L505.769 13.1619C506.509 13.2941 507.166 13.7141 507.597 14.33C508.029 14.9459 508.198 15.7075 508.069 16.4482L502.079 50.4168C501.947 51.1566 501.526 51.8137 500.91 52.2445C500.295 52.6753 499.533 52.8447 498.793 52.7156Z" fill="#D81E04"/>
<path d="M472.786 27.4111C473.151 27.3995 473.498 27.2495 473.756 26.9914C474.014 26.7334 474.165 26.3867 474.177 26.0218C474.181 25.8382 474.148 25.6557 474.079 25.4853C474.011 25.3148 473.909 25.16 473.779 25.0302C473.649 24.9003 473.494 24.7982 473.324 24.7298C473.154 24.6615 472.971 24.6284 472.787 24.6326C472.597 24.619 472.406 24.6449 472.227 24.7087C472.047 24.7725 471.882 24.8728 471.743 25.0033C471.604 25.1338 471.494 25.2916 471.419 25.4669C471.344 25.6422 471.306 25.8311 471.307 26.0218C471.312 26.2105 471.354 26.3963 471.431 26.5685C471.509 26.7407 471.619 26.8959 471.757 27.0251C471.894 27.1543 472.056 27.2549 472.233 27.3212C472.409 27.3874 472.598 27.418 472.786 27.4111ZM494.611 22.6011H496.642L498.958 26.1117C498.958 25.6485 498.868 25.2751 498.868 25.0063V22.6011H500.988V29.353H498.957L496.641 25.8425C496.711 26.1764 496.741 26.5174 496.731 26.8584V29.353H494.611V22.6011ZM488.875 22.6011H493.595V24.2592H491.011V25.0958H492.4V26.6643H491.011V27.5009H493.879V29.3523H488.889V22.6011H488.875ZM483.602 22.6011H486.005V27.5009H488.127V29.3523H483.586V22.6011H483.602ZM477.029 22.6011H479.806C481.569 22.6011 482.495 23.4377 482.495 24.9165C482.495 25.8422 481.942 26.485 481.196 26.5745L482.958 29.3517H480.27L479.164 27.1409V29.3517H477.028L477.029 22.6011ZM472.787 22.4218C473.727 22.4411 474.623 22.8293 475.279 23.5029C475.936 24.1764 476.302 25.0811 476.297 26.0218C476.284 26.9581 475.903 27.8517 475.237 28.5092C474.57 29.1667 473.671 29.5354 472.735 29.5354C471.798 29.5354 470.9 29.1667 470.233 28.5092C469.566 27.8517 469.185 26.9581 469.172 26.0218C469.173 25.5481 469.267 25.0791 469.449 24.6417C469.631 24.2043 469.897 23.8071 470.233 23.4728C470.569 23.1384 470.967 22.8735 471.405 22.6932C471.843 22.5129 472.312 22.4207 472.786 22.4218H472.787ZM480.36 25.0059C480.36 24.5427 480.076 24.2739 479.524 24.2739H479.148V25.7527H479.522C480.091 25.753 480.359 25.4691 480.359 25.0059H480.36ZM474.355 33.7594C474.392 34.2417 474.392 34.7261 474.355 35.2083C474.349 35.4934 474.286 35.7744 474.17 36.0346C474.053 36.2948 473.885 36.5288 473.676 36.7226C473.467 36.9164 473.221 37.0661 472.952 37.1626C472.684 37.2592 472.399 37.3007 472.114 37.2847C471.725 37.2749 471.34 37.1935 470.979 37.0447V38.1651C470.98 38.3488 470.909 38.5255 470.781 38.657C470.652 38.7884 470.477 38.864 470.294 38.8673C470.202 38.8682 470.111 38.8505 470.026 38.8153C469.942 38.7801 469.865 38.7282 469.801 38.6626C469.737 38.597 469.687 38.5191 469.653 38.4336C469.62 38.3481 469.605 38.2568 469.608 38.1651V32.699C469.603 32.6308 469.617 32.5626 469.649 32.5021C469.68 32.4415 469.728 32.391 469.787 32.3561C470.432 31.9245 471.192 31.6956 471.968 31.6989C473.294 31.6982 474.25 32.5498 474.354 33.7598L474.355 33.7594ZM470.979 33.3264V35.7315C471.287 35.8964 471.63 35.9836 471.98 35.9856C472.112 35.9956 472.245 35.9776 472.369 35.933C472.494 35.8883 472.608 35.8179 472.704 35.7263C472.8 35.6348 472.875 35.5241 472.925 35.4015C472.976 35.2789 473 35.1471 472.996 35.0146C473.026 34.6817 473.026 34.3468 472.996 34.0138C472.996 33.8778 472.968 33.7433 472.914 33.6185C472.86 33.4938 472.78 33.3816 472.681 33.289C472.581 33.1964 472.464 33.1254 472.335 33.0805C472.207 33.0355 472.071 33.0176 471.935 33.0278C471.595 33.0378 471.264 33.1411 470.979 33.3264H470.979ZM479.658 33.7594V36.299C479.667 36.3932 479.65 36.4882 479.607 36.5728C479.565 36.6575 479.499 36.7283 479.418 36.7769C478.773 37.161 478.032 37.3527 477.282 37.3296C475.818 37.3296 475.146 36.5379 475.146 35.581C475.146 34.7146 475.743 33.9377 477.162 33.9377C477.56 33.9375 477.957 33.9878 478.342 34.0872V33.7138C478.342 33.2061 478.088 32.9369 477.401 32.9369C477.076 32.949 476.753 33.0095 476.445 33.1162C476.33 33.1544 476.209 33.1745 476.087 33.1759C475.931 33.1763 475.781 33.1155 475.669 33.0065C475.557 32.8975 475.493 32.7491 475.489 32.593C475.486 32.4558 475.528 32.3211 475.609 32.2103C475.69 32.0995 475.805 32.0187 475.937 31.9807C476.404 31.8012 476.901 31.7101 477.401 31.7119C478.866 31.6982 479.657 32.3407 479.657 33.7598L479.658 33.7594ZM476.461 35.5371C476.461 36.0003 476.819 36.2229 477.372 36.2229C477.722 36.2308 478.066 36.1318 478.358 35.939V34.9978C478.04 34.8961 477.707 34.8456 477.372 34.8483C476.73 34.85 476.461 35.1638 476.461 35.5371ZM485.259 33.2366C485.26 33.325 485.243 33.4126 485.209 33.4943C485.175 33.5761 485.126 33.6504 485.063 33.7129C485.001 33.7754 484.926 33.8249 484.845 33.8586C484.763 33.8922 484.675 33.9093 484.587 33.9089C484.476 33.9049 484.368 33.8743 484.272 33.8197C484.176 33.7651 484.094 33.6881 484.034 33.5952C483.943 33.4116 483.799 33.2594 483.621 33.1583C483.442 33.0571 483.238 33.0115 483.033 33.0274C482.899 33.0166 482.764 33.0337 482.636 33.0775C482.508 33.1213 482.391 33.1909 482.292 33.282C482.192 33.3731 482.113 33.4837 482.058 33.607C482.003 33.7302 481.974 33.8635 481.973 33.9984C481.951 34.3367 481.951 34.676 481.973 35.0143C481.973 35.1507 482.001 35.2856 482.056 35.4108C482.11 35.536 482.189 35.6489 482.288 35.7425C482.387 35.8362 482.505 35.9086 482.633 35.9555C482.761 36.0023 482.897 36.0226 483.033 36.0151C483.237 36.0258 483.439 35.978 483.617 35.8774C483.794 35.7768 483.939 35.6276 484.034 35.4473C484.11 35.3241 484.225 35.2292 484.36 35.1774C484.496 35.1255 484.644 35.1195 484.783 35.1602C484.922 35.2009 485.044 35.2861 485.13 35.4028C485.216 35.5194 485.262 35.661 485.259 35.8059C485.259 36.5379 484.318 37.3447 483.004 37.3447C482.407 37.3637 481.826 37.1525 481.381 36.7548C480.936 36.3571 480.661 35.8035 480.614 35.2087C480.584 34.7406 480.584 34.2711 480.614 33.803C480.688 32.593 481.689 31.7266 483.004 31.7266C484.318 31.6982 485.259 32.5049 485.259 33.2369L485.259 33.2366ZM490.204 32.5642C490.202 32.7674 490.127 32.9633 489.994 33.1169L487.589 35.94H489.502C489.591 35.933 489.681 35.9444 489.765 35.9735C489.85 36.0025 489.927 36.0485 489.993 36.1087C490.059 36.1689 490.111 36.242 490.148 36.3235C490.184 36.4049 490.204 36.493 490.205 36.5822C490.202 36.6709 490.182 36.7583 490.145 36.839C490.108 36.9198 490.055 36.9923 489.99 37.0522C489.924 37.1121 489.847 37.1582 489.764 37.1878C489.68 37.2174 489.591 37.2298 489.502 37.2243H486.664C486.56 37.2343 486.455 37.2223 486.356 37.1894C486.257 37.1564 486.165 37.103 486.088 37.0327C486.01 36.9624 485.949 36.8768 485.906 36.7812C485.864 36.6856 485.842 36.5822 485.841 36.4776C485.841 36.2739 485.915 36.0771 486.051 35.9249L488.456 33.0867H486.663C486.575 33.0951 486.486 33.0852 486.402 33.0576C486.318 33.03 486.241 32.9854 486.175 32.9265C486.109 32.8676 486.056 32.7957 486.019 32.7153C485.982 32.6349 485.963 32.5477 485.961 32.4593C485.963 32.3698 485.983 32.2816 486.02 32.1998C486.056 32.1181 486.109 32.0445 486.174 31.9833C486.24 31.9221 486.317 31.8746 486.4 31.8434C486.484 31.8123 486.574 31.7982 486.663 31.8021H489.382C489.487 31.7926 489.593 31.8053 489.693 31.8395C489.793 31.8737 489.885 31.9285 489.962 32.0004C490.04 32.0723 490.101 32.1596 490.143 32.2568C490.185 32.354 490.205 32.4589 490.204 32.5646V32.5642ZM492.519 32.4147V33.8338H492.622C492.72 33.8426 492.819 33.825 492.908 33.7828C492.998 33.7406 493.074 33.6754 493.13 33.5938L494.638 32.0403C494.706 31.9558 494.793 31.8877 494.891 31.8412C494.99 31.7946 495.097 31.7708 495.206 31.7715C495.388 31.7715 495.562 31.8438 495.691 31.9724C495.819 32.101 495.892 32.2754 495.892 32.4573C495.893 32.5589 495.873 32.6598 495.831 32.7526C495.79 32.8455 495.728 32.9282 495.652 32.9949L494.128 34.4438L495.681 36.0569C495.752 36.1249 495.808 36.2061 495.846 36.2958C495.884 36.3856 495.905 36.4821 495.906 36.5798C495.903 36.7609 495.83 36.9339 495.702 37.062C495.574 37.1901 495.401 37.2631 495.22 37.2655C495.12 37.2672 495.022 37.2465 494.931 37.205C494.841 37.1635 494.761 37.1021 494.697 37.0255L493.158 35.3674C493.104 35.2891 493.029 35.227 492.943 35.1875C492.856 35.1481 492.76 35.1327 492.665 35.1432H492.52V36.5623C492.522 36.6544 492.506 36.746 492.472 36.8319C492.439 36.9177 492.389 36.9962 492.325 37.0628C492.262 37.1293 492.185 37.1827 492.101 37.2198C492.017 37.257 491.926 37.2771 491.834 37.2792C491.649 37.2725 491.474 37.1939 491.345 37.06C491.217 36.9261 491.147 36.7475 491.148 36.5623V32.4151C491.145 32.3227 491.16 32.2306 491.193 32.1442C491.226 32.0578 491.276 31.9788 491.34 31.912C491.404 31.8452 491.48 31.7918 491.565 31.7551C491.65 31.7184 491.741 31.699 491.834 31.6982C492.02 31.7024 492.197 31.7803 492.325 31.9147C492.454 32.0491 492.524 32.2291 492.52 32.4151L492.519 32.4147ZM500.987 33.7591V36.2986C500.997 36.3929 500.98 36.4879 500.937 36.5725C500.895 36.6571 500.829 36.7279 500.747 36.7766C500.103 37.1606 499.362 37.3524 498.611 37.3293C497.147 37.3293 496.475 36.5376 496.475 35.5807C496.475 34.7143 497.073 33.9374 498.492 33.9374C498.886 33.9361 499.278 33.9863 499.658 34.0869V33.7135C499.658 33.2057 499.404 32.9366 498.717 32.9366C498.391 32.9487 498.069 33.0091 497.761 33.1159C497.645 33.1551 497.524 33.1753 497.402 33.1755C497.246 33.1759 497.096 33.1151 496.984 33.0061C496.873 32.8972 496.808 32.7487 496.805 32.5927C496.801 32.4554 496.843 32.3208 496.924 32.21C497.005 32.0992 497.121 32.0184 497.253 31.9803C497.719 31.7993 498.216 31.7081 498.717 31.7115C500.197 31.6982 500.988 32.3407 500.988 33.7598L500.987 33.7591ZM497.791 35.5368C497.791 36 498.149 36.2225 498.702 36.2225C499.052 36.2305 499.396 36.1315 499.688 35.9386V34.9975C499.369 34.8957 499.037 34.8453 498.702 34.848C498.076 34.8501 497.792 35.1638 497.792 35.5371L497.791 35.5368Z" fill="white"/>
</g>
<path d="M562.8 23.6571C567.21 23.6571 569.826 26.5461 569.119 30.4301C568.413 34.3141 564.611 37.3153 560.201 37.3153H555.773C554.536 37.2627 553.325 36.9488 552.218 36.3941C551.111 35.8394 550.134 35.0566 549.352 34.0972H560.943C561.993 34.1186 563.016 33.7679 563.832 33.1071C564.649 32.4463 565.205 31.518 565.402 30.4867C565.785 28.3796 564.479 26.8781 562.254 26.8781H552.332C551.095 26.8248 549.883 26.5102 548.776 25.9551C547.669 25.3999 546.693 24.6168 545.91 23.6571H562.8ZM559.82 32.0976L560.408 28.8776H547.632C548.414 29.8369 549.39 30.6197 550.497 31.1747C551.603 31.7297 552.814 32.0442 554.051 32.0976H559.82ZM580.137 33.0238C580.342 32.6404 580.483 32.2263 580.555 31.7977C580.68 31.1887 580.662 30.559 580.503 29.9581C580.344 29.3572 580.047 28.8013 579.637 28.3343C579.227 27.8673 578.713 27.5018 578.138 27.2664C577.563 27.0311 576.94 26.9324 576.32 26.9781C574.794 26.9931 573.318 27.5294 572.138 28.4981C570.957 29.4667 570.144 30.8096 569.831 32.3042C569.292 35.2695 571.186 37.5134 574.386 37.5134C576.195 37.5601 577.949 36.8929 579.27 35.6562L577.591 33.6077C576.916 34.1719 576.066 34.4828 575.187 34.4867C574.055 34.4867 573.362 33.9 573.288 33.0238H580.137ZM573.63 30.9743C573.814 30.5491 574.116 30.1855 574.501 29.9264C574.885 29.6672 575.335 29.5232 575.799 29.5114C576.198 29.5008 576.585 29.6487 576.875 29.9229C577.166 30.1971 577.335 30.5752 577.348 30.9743H573.63ZM580.95 37.3162H584.5L586.985 23.659H583.433L580.95 37.3162ZM590.931 22.4895C590.352 22.4695 589.784 22.6539 589.327 23.0105C588.87 23.3671 588.552 23.8731 588.431 24.44C588.374 24.6938 588.38 24.9576 588.448 25.2088C588.515 25.46 588.642 25.6912 588.818 25.8827C588.994 26.0742 589.214 26.2204 589.458 26.3088C589.703 26.3972 589.965 26.4252 590.223 26.3905C590.802 26.4103 591.37 26.2257 591.827 25.8692C592.284 25.5126 592.601 25.0067 592.723 24.44C592.779 24.1861 592.774 23.9224 592.706 23.6714C592.639 23.4203 592.511 23.1892 592.336 22.9977C592.16 22.8063 591.94 22.6601 591.696 22.5716C591.451 22.4831 591.189 22.4549 590.931 22.4895ZM586.457 37.3162H590.007L591.855 27.1714H588.303L586.457 37.3162ZM600.083 29.6095L599.604 32.2429H602.706C602.424 32.8606 601.961 33.3781 601.379 33.7265C600.796 34.0749 600.121 34.2377 599.443 34.1934C597.395 34.1934 596.216 32.6343 596.601 30.5263C596.758 29.5252 597.262 28.6114 598.025 27.9445C598.788 27.2776 599.761 26.9001 600.774 26.8781C601.29 26.8456 601.805 26.958 602.26 27.2024C602.716 27.4469 603.094 27.8138 603.352 28.2617L606.421 25.6482C606.421 25.6482 605.22 23.4647 601.453 23.4647C599.434 23.4959 597.485 24.2142 595.928 25.5012C594.371 26.7883 593.299 28.5673 592.888 30.5452C592.171 34.4867 594.667 37.5105 598.782 37.5105C600.893 37.4852 602.914 36.6522 604.43 35.1826C605.946 33.7131 606.841 31.7187 606.931 29.6095H600.083ZM614.161 26.9752C612.62 26.979 611.127 27.5091 609.929 28.4778C608.73 29.4465 607.899 30.7955 607.573 32.3014C607.033 35.2667 608.929 37.5105 612.127 37.5105C613.667 37.5065 615.16 36.9764 616.358 36.0081C617.556 35.0398 618.387 33.6914 618.713 32.1863C619.252 29.2181 617.358 26.9752 614.159 26.9752H614.161ZM612.771 34.2915C612.514 34.3062 612.256 34.2597 612.02 34.1559C611.784 34.052 611.575 33.8937 611.412 33.6939C611.249 33.4941 611.135 33.2585 611.08 33.0063C611.025 32.7541 611.031 32.4925 611.096 32.2429C611.204 31.6759 611.502 31.1629 611.943 30.7901C612.383 30.4173 612.939 30.2073 613.516 30.1952C613.773 30.1804 614.031 30.2268 614.267 30.3306C614.503 30.4343 614.712 30.5924 614.875 30.7921C615.039 30.9918 615.153 31.2273 615.208 31.4794C615.263 31.7316 615.258 31.9932 615.193 32.2429C615.085 32.8102 614.786 33.3232 614.345 33.6962C613.904 34.0691 613.349 34.2793 612.771 34.2915ZM626.15 26.9752C624.61 26.9788 623.116 27.5089 621.918 28.4776C620.72 29.4463 619.889 30.7955 619.562 32.3014C619.023 35.2667 620.918 37.5105 624.117 37.5105C625.657 37.5069 627.15 36.9769 628.348 36.0086C629.546 35.0403 630.378 33.6917 630.704 32.1863C631.244 29.2181 629.35 26.9752 626.15 26.9752H626.15ZM624.761 34.2915C624.503 34.3061 624.246 34.2596 624.01 34.1557C623.773 34.0519 623.565 33.8936 623.401 33.6939C623.238 33.4942 623.124 33.2586 623.069 33.0064C623.014 32.7543 623.019 32.4926 623.084 32.2429C623.192 31.6759 623.491 31.1632 623.932 30.7904C624.372 30.4177 624.927 30.2076 625.504 30.1952C625.762 30.1808 626.019 30.2274 626.255 30.3312C626.491 30.4351 626.7 30.5933 626.863 30.7929C627.026 30.9926 627.14 31.228 627.195 31.4799C627.25 31.7319 627.245 31.9933 627.179 32.2429C627.072 32.8102 626.773 33.3234 626.332 33.6964C625.891 34.0694 625.336 34.2795 624.758 34.2915" fill="url(#paint0_linear_1_13410)"/>
<defs>
<linearGradient id="paint0_linear_1_13410" x1="545.91" y1="30" x2="630.797" y2="30" gradientUnits="userSpaceOnUse">
<stop stop-color="#82CEE6"/>
<stop offset="0.46" stop-color="#82CEE6"/>
<stop offset="1" stop-color="#8BACDB"/>
</linearGradient>
<clipPath id="clip0_1_13410">
<rect width="85" height="20" fill="white" transform="translate(0.646484 20)"/>
</clipPath>
<clipPath id="clip1_1_13410">
<rect width="70" height="19" fill="white" transform="translate(113.646 20.5)"/>
</clipPath>
<clipPath id="clip2_1_13410">
<rect width="74" height="20" fill="white" transform="translate(211.646 20)"/>
</clipPath>
<clipPath id="clip3_1_13410">
<rect width="113.707" height="24" fill="white" transform="translate(313.646 18)"/>
</clipPath>
<clipPath id="clip4_1_13410">
<rect width="60" height="60" fill="white" transform="translate(455.354)"/>
</clipPath>
</defs>
</svg>
