<svg width="684" height="48" viewBox="0 0 684 48" fill="none" xmlns="http://www.w3.org/2000/svg">
<g clip-path="url(#clip0_1_13468)">
<path fill-rule="evenodd" clip-rule="evenodd" d="M13.7695 8.09875L1.18565 14.9564L15.1582 23.0999C15.2782 23.1685 15.4325 23.3228 15.4325 23.4771V35.4609C15.4325 35.6323 15.2782 35.7352 15.261 35.7523L14.421 36.2152C14.2838 36.2838 14.0952 36.301 13.9066 36.1981L13.1694 35.7866C13.0666 35.7352 12.9637 35.5809 12.9637 35.4266V24.8143C12.9637 24.6258 12.758 24.54 12.6208 24.4543L0.499878 17.3909V31.5692C0.499878 31.8778 0.808474 32.2378 1.04849 32.3921L13.6666 39.8327C14.0781 40.0727 14.3181 40.0384 14.8667 39.7469L27.3305 32.3921C27.622 32.2206 27.8963 31.8949 27.8963 31.552V17.3909L19.5299 22.277C19.4271 22.3456 19.2385 22.3627 19.1185 22.2942L18.3641 21.8484C18.2098 21.7627 18.0727 21.5912 18.0727 21.4027L18.0555 20.5112C18.0555 20.374 18.1413 20.2026 18.2613 20.134L27.2105 14.9221L14.6096 8.06446C14.4381 7.99589 13.9752 7.97874 13.7695 8.09875Z" fill="url(#paint0_linear_1_13468)"/>
<path d="M47.8522 31.5349V14.8536H44.732V20.3226C44.4405 20.1511 43.1718 19.9283 42.1603 19.9454C38.8344 20.0311 36.3485 22.6713 36.417 25.8773C36.5028 30.0776 38.9887 31.8435 42.8633 32.0835C44.8863 32.2378 47.2693 31.6206 47.8522 31.5349ZM44.7491 29.2718C44.5434 29.3233 43.189 29.4604 42.6918 29.3747C40.6345 29.049 39.6573 27.986 39.623 26.1687C39.6059 24.2143 40.4116 22.8085 42.8118 22.7056C43.2233 22.6885 44.5605 22.9285 44.732 23.0828L44.7491 29.2718ZM73.4999 31.5349V14.8536H70.3797V20.3226C70.0882 20.1511 68.8196 19.9283 67.8081 19.9454C64.4821 20.0311 61.9962 22.6713 62.0648 25.8773C62.1505 30.0776 64.6364 31.8435 68.511 32.0835C70.5168 32.2378 72.8999 31.6206 73.4999 31.5349ZM70.3968 29.2718C70.1911 29.3233 68.8367 29.4604 68.3395 29.3747C66.2822 29.049 65.305 27.986 65.2707 26.1687C65.2536 24.2143 66.0593 22.8085 68.4595 22.7056C68.871 22.6885 70.2082 22.9285 70.3797 23.0828L70.3968 29.2718ZM49.6181 20.9398V36.5924H52.7726L52.7555 22.9799C52.9612 22.9285 54.2984 22.7571 54.8128 22.7913C56.8872 22.9113 57.8473 24.0772 57.8816 25.9116C57.9159 27.0774 57.5215 28.0546 56.7672 28.6547C56.1843 29.1175 55.3957 29.3404 54.4699 29.3747V32.1178C55.9271 32.1521 57.3844 31.8606 58.5502 31.1063C60.0589 30.1291 61.139 27.9689 61.0704 25.9287C60.9675 22.2256 58.8759 20.0997 54.6242 20.014C52.6354 19.9283 50.2181 20.6312 49.6181 20.9398Z" fill="#414042"/>
</g>
<g clip-path="url(#clip1_1_13468)">
<path d="M106.262 36.4228C103.557 34.2086 102.128 31.0211 102.128 27.2143V9.11828C106.399 6.85428 111.571 5.70685 117.5 5.70685C123.429 5.70685 128.601 6.85428 132.871 9.11828V27.2143C132.871 31.0211 131.443 34.2063 128.738 36.4228C126.264 38.4508 118.402 41.9006 117.5 42.2931C116.598 41.9006 108.736 38.4514 106.262 36.4228Z" fill="#330000"/>
<path d="M132.03 8.90572C130.054 8.72229 128.001 8.60115 125.91 8.60115C118.156 8.60115 109.843 10.268 102.97 16.5714V27.3457C102.97 30.8549 104.268 33.7852 106.734 35.7949C108.911 37.5663 115.611 40.6006 117.5 41.4343C119.365 40.6132 126.048 37.6189 128.263 35.7949C130.744 33.7503 132.03 30.888 132.03 27.3457V8.90572ZM104.391 26.2246V17.4731H107.173V26.348C107.173 27.1377 107.364 28.3069 108.64 28.3069C109.102 28.3257 109.56 28.2063 109.954 27.964V17.4731H112.733V29.5509C111.478 30.3342 110.017 30.7235 108.539 30.6686C105.784 30.6686 104.388 29.1737 104.388 26.2246H104.391ZM116.949 36.3246H114.165V18.1829C115.291 17.4914 116.596 17.147 117.917 17.1926C121.24 17.1926 123.066 19.7137 123.066 23.7714C123.066 27.8291 121.294 30.6206 118.203 30.6206C117.78 30.6281 117.358 30.5748 116.95 30.4623L116.949 36.3246ZM116.949 28.1874C117.238 28.2956 117.544 28.3524 117.852 28.3554C119.452 28.3554 120.219 26.8851 120.219 23.8411C120.219 20.7229 119.55 19.4331 117.934 19.4331C117.594 19.4304 117.258 19.4987 116.947 19.6337L116.949 28.1874ZM123.696 20.8206C123.714 19.8453 124.116 18.9164 124.816 18.2367C125.516 17.5571 126.456 17.1817 127.431 17.1926C128.523 17.1347 129.602 17.4539 130.486 18.0966V20.5177C129.831 19.8337 128.939 19.4251 127.993 19.3749C127.204 19.368 126.383 19.7149 126.356 20.7046C126.329 21.7177 127.148 22.1177 128.184 22.7269C130.51 24.0937 130.959 25.3223 130.906 26.9457C130.852 28.7257 129.626 30.6697 126.875 30.6697C125.797 30.6576 124.741 30.3594 123.815 29.8057V27.2417C124.55 27.9063 125.487 28.305 126.476 28.3743C127.497 28.3794 128.169 27.7943 128.145 26.8234C128.124 25.9497 127.631 25.4749 126.406 24.7554C124.111 23.4091 123.698 22.3011 123.694 20.8206H123.696ZM105.802 36.9297C102.986 34.6229 101.5 31.308 101.5 27.3457V8.50972C105.945 6.15315 111.328 4.95886 117.5 4.95886C123.671 4.95886 129.055 6.15315 133.5 8.50972V27.3457C133.5 31.308 132.014 34.6229 129.198 36.9303C126.623 39.0411 118.439 42.6314 117.5 43.04C116.56 42.6314 108.377 39.0411 105.802 36.9297ZM127.713 40.8777V42.5126H128.008V41.8303H128.05C128.072 41.8634 128.494 42.5126 128.494 42.5126H128.851C128.851 42.5126 128.403 41.8571 128.357 41.7954C128.459 41.778 128.552 41.7247 128.618 41.6451C128.684 41.5654 128.72 41.4648 128.719 41.3611C128.72 41.2987 128.709 41.2365 128.686 41.1783C128.663 41.1201 128.629 41.067 128.586 41.0219C128.543 40.9768 128.491 40.9408 128.434 40.9157C128.377 40.8907 128.315 40.8772 128.252 40.876C128.226 40.8755 128.2 40.877 128.175 40.8806L127.713 40.8777ZM128.143 41.1166C128.394 41.1166 128.428 41.2394 128.428 41.3451C128.428 41.4983 128.363 41.6017 128.047 41.6017H128.008V41.1154L128.143 41.1166ZM129.297 41.6994C129.297 41.993 129.18 42.2744 128.972 42.4817C128.764 42.689 128.482 42.8054 128.189 42.8052C127.895 42.8049 127.614 42.6881 127.406 42.4805C127.199 42.2728 127.082 41.9913 127.082 41.6977C127.082 41.4042 127.199 41.1226 127.406 40.915C127.614 40.7073 127.895 40.5905 128.189 40.5903C128.482 40.5901 128.764 40.7064 128.972 40.9137C129.18 41.1211 129.297 41.4024 129.297 41.696V41.7017V41.6994ZM128.186 40.3537C127.92 40.3541 127.661 40.433 127.44 40.5807C127.22 40.7283 127.048 40.9379 126.946 41.1832C126.845 41.4284 126.818 41.6982 126.87 41.9586C126.921 42.219 127.049 42.4582 127.236 42.6461C127.424 42.834 127.663 42.9621 127.923 43.0143C128.183 43.0665 128.453 43.0405 128.699 42.9395C128.944 42.8384 129.154 42.6669 129.302 42.4467C129.45 42.2264 129.53 41.9672 129.531 41.7017C129.531 41.5248 129.497 41.3495 129.429 41.1859C129.362 41.0223 129.263 40.8736 129.138 40.7484C129.013 40.6231 128.865 40.5238 128.701 40.4561C128.538 40.3884 128.363 40.3536 128.186 40.3537Z" fill="#FFBE00"/>
</g>
<g clip-path="url(#clip2_1_13468)">
<path d="M197.833 36.6035C197.833 36.1104 197.468 35.7953 196.892 35.7953C196.317 35.7953 195.952 36.1104 195.952 36.6035C195.952 37.0966 196.317 37.4063 196.892 37.4063C197.468 37.4063 197.833 37.0963 197.833 36.6035ZM195.597 37.6706C195.446 37.5358 195.326 37.3709 195.244 37.1866C195.161 37.0023 195.119 36.8027 195.119 36.6008C195.119 36.3989 195.161 36.1993 195.244 36.015C195.326 35.8306 195.446 35.6657 195.597 35.531C195.979 35.2727 196.429 35.1346 196.89 35.1346C197.351 35.1346 197.802 35.2727 198.184 35.531C198.335 35.665 198.457 35.8296 198.54 36.0141C198.623 36.1985 198.666 36.3985 198.666 36.6008C198.666 36.8031 198.623 37.0031 198.54 37.1875C198.457 37.3719 198.335 37.5366 198.184 37.6706C197.802 37.9292 197.351 38.0674 196.89 38.0674C196.429 38.0674 195.978 37.9292 195.597 37.6706ZM201.738 35.2056H202.551V37.996H201.758V37.563C201.642 37.7311 201.484 37.8659 201.299 37.9542C201.115 38.0425 200.91 38.0812 200.706 38.0665C200.53 38.0787 200.353 38.0554 200.186 37.9979C200.019 37.9405 199.865 37.8502 199.734 37.7323C199.485 37.4892 199.383 37.1632 199.383 36.5683V35.2062H200.202V36.5889C200.183 36.7114 200.195 36.8367 200.238 36.9531C200.28 37.0695 200.351 37.1733 200.445 37.2549C200.549 37.3167 200.665 37.356 200.786 37.3704C200.907 37.3848 201.029 37.374 201.145 37.3386C201.261 37.3032 201.369 37.244 201.461 37.1648C201.553 37.0856 201.627 36.9881 201.68 36.8785C201.721 36.7645 201.739 36.6438 201.736 36.5227L201.738 35.2056ZM205.57 37.3352V37.996H204.549C203.984 37.996 203.75 37.7724 203.75 37.2437V35.8564H203.232V35.2056H203.75V34.4587H204.569V35.2056H205.571V35.8564H204.569V37.0608C204.569 37.2689 204.64 37.3342 204.889 37.3342L205.57 37.3352ZM210.46 36.6035C210.46 36.1104 210.096 35.7953 209.52 35.7953C208.945 35.7953 208.58 36.1104 208.58 36.6035C208.58 37.0966 208.945 37.4063 209.52 37.4063C210.096 37.4063 210.46 37.0963 210.46 36.6035ZM208.224 37.6706C208.074 37.5358 207.954 37.3709 207.871 37.1866C207.789 37.0023 207.746 36.8027 207.746 36.6008C207.746 36.3989 207.789 36.1993 207.871 36.015C207.954 35.8306 208.074 35.6657 208.224 35.531C208.606 35.2727 209.057 35.1346 209.518 35.1346C209.979 35.1346 210.429 35.2727 210.811 35.531C210.963 35.665 211.084 35.8296 211.167 36.0141C211.25 36.1985 211.293 36.3985 211.293 36.6008C211.293 36.8031 211.25 37.0031 211.167 37.1875C211.084 37.3719 210.963 37.5366 210.811 37.6706C210.429 37.9292 209.979 38.0674 209.518 38.0674C209.056 38.0674 208.606 37.9292 208.224 37.6706ZM213.87 34.8249H213.357C213.148 34.8249 213.067 34.8801 213.067 35.0275V35.2056H213.87V35.8561H213.067V37.996H212.249V35.8561H211.791V35.2056H212.249V34.9929C212.249 34.449 212.6 34.195 213.316 34.195H213.87V34.8249ZM218.287 37.3352V37.996H217.266C216.702 37.996 216.468 37.7724 216.468 37.2437V35.8564H215.949V35.2056H216.468V34.4587H217.286V35.2056H218.287V35.8564H217.286V37.0608C217.286 37.2689 217.357 37.3342 217.606 37.3342L218.287 37.3352ZM219.096 37.996V34.1941H219.914V35.6024C220.042 35.4455 220.206 35.3214 220.391 35.2401C220.577 35.1588 220.779 35.1227 220.981 35.1348C221.336 35.1167 221.684 35.2365 221.952 35.469C222.201 35.7078 222.308 36.0432 222.308 36.633V37.9951H221.49V36.6129C221.505 36.4964 221.493 36.3778 221.453 36.2672C221.413 36.1567 221.347 36.0573 221.261 35.9776C221.12 35.8733 220.948 35.8198 220.773 35.8257C220.602 35.8151 220.433 35.8578 220.288 35.9479C220.144 36.0379 220.03 36.1709 219.965 36.3282C219.927 36.4431 219.91 36.5636 219.914 36.6843V37.9957L219.096 37.996ZM223.897 36.2678H225.656C225.6 35.9478 225.285 35.7513 224.812 35.7513C224.329 35.7513 223.984 35.9439 223.897 36.2678ZM223.506 37.6806C223.356 37.5458 223.236 37.3805 223.154 37.1956C223.073 37.0108 223.032 36.8108 223.033 36.6088C223.035 36.4068 223.08 36.2076 223.165 36.0244C223.25 35.8411 223.373 35.6781 223.526 35.5462C223.889 35.2603 224.341 35.1142 224.802 35.1345C225.245 35.1126 225.682 35.2411 226.043 35.4991C226.193 35.6052 226.315 35.7466 226.399 35.9107C226.482 36.0748 226.524 36.2569 226.521 36.441C226.522 36.4748 226.52 36.5086 226.516 36.5421C226.516 36.5783 226.511 36.654 226.506 36.7813H223.872C223.928 37.1726 224.309 37.4014 224.905 37.4014C225.304 37.4109 225.695 37.2836 226.013 37.0407L226.45 37.5333C226.15 37.8638 225.535 38.0674 224.829 38.0674C224.356 38.0961 223.889 37.9593 223.507 37.6806H223.506ZM231.558 36.6035C231.558 36.1204 231.188 35.8005 230.639 35.8005C230.069 35.8005 229.688 36.1204 229.688 36.6035C229.688 37.0866 230.069 37.4014 230.639 37.4014C231.192 37.4014 231.558 37.0863 231.558 36.6035ZM228.87 37.996V34.1941H229.688V35.5361C229.988 35.262 230.385 35.1178 230.791 35.1348C231.214 35.1179 231.627 35.2632 231.946 35.541C232.087 35.6788 232.2 35.8436 232.276 36.0256C232.353 36.2077 232.393 36.4032 232.393 36.6008C232.393 36.7983 232.353 36.9939 232.276 37.1759C232.2 37.3579 232.087 37.5227 231.946 37.6606C231.627 37.9388 231.214 38.0844 230.791 38.0674C230.586 38.076 230.381 38.044 230.188 37.9733C229.995 37.9026 229.818 37.7946 229.667 37.6554V37.996H228.87ZM235.722 36.6035C235.722 36.1104 235.355 35.7953 234.78 35.7953C234.204 35.7953 233.84 36.1104 233.84 36.6035C233.84 37.0966 234.205 37.4063 234.78 37.4063C235.355 37.4063 235.722 37.0963 235.722 36.6035ZM233.485 37.6706C233.335 37.5358 233.215 37.3709 233.132 37.1866C233.05 37.0023 233.007 36.8027 233.007 36.6008C233.007 36.3989 233.05 36.1993 233.132 36.015C233.215 35.8306 233.335 35.6657 233.485 35.531C233.867 35.2727 234.318 35.1346 234.779 35.1346C235.24 35.1346 235.69 35.2727 236.072 35.531C236.224 35.665 236.345 35.8296 236.428 36.0141C236.511 36.1985 236.554 36.3985 236.554 36.6008C236.554 36.8031 236.511 37.0031 236.428 37.1875C236.345 37.3719 236.224 37.5366 236.072 37.6706C235.69 37.9292 235.24 38.0674 234.779 38.0674C234.318 38.0674 233.867 37.9292 233.485 37.6706ZM240.5 37.996H239.412L238.625 37.0915L237.832 37.996H236.815L238.126 36.5883L236.84 35.2056H237.913L238.67 36.0542L239.422 35.2056H240.439L239.168 36.5576L240.5 37.996ZM203.596 30.5821H201.411V24.3032C201.411 22.9809 200.828 22.2694 199.77 22.187C198.941 22.1737 198.113 22.2656 197.306 22.4605V30.5808H195.12V20.9066C196.784 20.5515 198.478 20.3538 200.178 20.3163C200.639 20.3045 201.096 20.3864 201.524 20.5568C201.952 20.7273 202.34 20.9829 202.666 21.308C203.287 21.9293 203.597 22.7952 203.598 23.9058L203.596 30.5821ZM240.453 30.6486C240.087 30.7408 239.712 30.7868 239.335 30.7856C238.103 30.7856 237.289 30.5122 236.893 29.9653C236.577 29.5346 236.419 28.7186 236.419 27.5172V17.4465H238.577V20.2938H240.491V22.0561H238.577V27.3787C238.577 27.9536 238.65 28.3324 238.796 28.5154C238.969 28.7497 239.335 28.867 239.895 28.8672C240.081 28.8655 240.268 28.8525 240.453 28.8283L240.453 30.6486Z" fill="#404041"/>
<path d="M172.931 24.0283C171.093 24.6717 169.162 25.0059 167.215 25.0173C165.268 25.0058 163.337 24.6716 161.5 24.0283C163.337 23.385 165.268 23.0509 167.215 23.0396C169.162 23.051 171.093 23.3852 172.931 24.0286V24.0283ZM180.833 9.48143C179.269 8.35365 177.906 6.97013 176.801 5.38904C175.724 3.80379 174.926 2.04568 174.442 0.190979C176.006 1.31863 177.369 2.70206 178.474 4.28307C179.552 5.86841 180.35 7.62663 180.833 9.48143ZM175.045 15.7584C173.12 15.4822 171.255 14.8882 169.525 14.0007C167.815 13.0978 166.27 11.9135 164.953 10.4975C166.877 10.773 168.743 11.3664 170.473 12.2533C172.183 13.1569 173.728 14.3418 175.045 15.7584ZM180.56 28.7906C182.182 28.7751 184.139 27.4981 184.139 27.4981C184.139 27.4981 179.602 26.1248 179.888 22.0555C180.782 15.3774 186.189 10.1344 192.958 9.29062C192.23 9.18954 191.495 9.14019 190.76 9.14296C182.388 9.18003 175.632 15.8645 175.669 24.0726C175.707 32.2808 182.525 38.9042 190.897 38.8671C191.585 38.8632 192.272 38.8135 192.954 38.7182C190.107 38.3735 187.417 37.2235 185.201 35.4032C182.985 33.583 181.335 31.1682 180.444 28.4424L180.56 28.7906ZM180.833 38.5183C179.269 39.6461 177.905 41.0297 176.801 42.611C175.724 44.1962 174.925 45.9543 174.442 47.8091C176.006 46.6814 177.369 45.298 178.474 43.717C179.552 42.1315 180.35 40.3732 180.833 38.5183ZM175.045 32.2416C173.121 32.5178 171.255 33.1117 169.525 33.999C167.815 34.902 166.27 36.0863 164.953 37.5023C166.877 37.2261 168.743 36.6323 170.473 35.7449C172.182 34.842 173.728 33.6577 175.045 32.2416Z" fill="#FFCB04"/>
<path d="M190.73 17.4356H192.958V30.5711H190.73V17.4356ZM215.32 21.9245C215.347 22.5214 215.25 23.1173 215.036 23.675C214.821 24.2327 214.494 24.7401 214.075 25.1655C213.242 25.981 212.113 26.3888 210.688 26.3888H207.987V30.5395H205.757V17.4016H210.527C212.072 17.4016 213.256 17.8031 214.082 18.6063C214.908 19.4094 215.32 20.5155 215.32 21.9245ZM213.069 21.9245C213.069 20.3322 212.29 19.536 210.733 19.536H207.985V24.2759H210.691C211.009 24.2947 211.327 24.2498 211.628 24.1439C211.928 24.038 212.204 23.8732 212.439 23.6591C212.657 23.4288 212.825 23.1562 212.933 22.8583C213.041 22.5605 213.087 22.2436 213.068 21.9272L213.069 21.9245ZM225.635 25.3658C225.635 26.9457 225.192 28.2185 224.307 29.1841C223.858 29.6426 223.322 30.0069 222.73 30.2556C222.139 30.5043 221.503 30.6324 220.862 30.6324C220.22 30.6324 219.585 30.5043 218.993 30.2556C218.402 30.0069 217.866 29.6426 217.417 29.1841C216.531 28.2181 216.088 26.9453 216.089 25.3658C216.09 23.7862 216.532 22.5168 217.417 21.5574C217.869 21.1016 218.406 20.7398 218.998 20.4928C219.59 20.2459 220.225 20.1187 220.867 20.1187C221.509 20.1187 222.144 20.2459 222.736 20.4928C223.328 20.7398 223.865 21.1016 224.317 21.5574C225.195 22.5172 225.634 23.7866 225.635 25.3658ZM223.378 25.3761C223.424 24.5365 223.181 23.7065 222.69 23.0238C222.469 22.7515 222.19 22.5322 221.873 22.3818C221.557 22.2315 221.21 22.1539 220.86 22.1548C220.509 22.1557 220.163 22.235 219.847 22.387C219.531 22.539 219.254 22.7598 219.034 23.0332C218.546 23.7138 218.304 24.5398 218.346 25.3761C218.301 26.2154 218.544 27.0449 219.034 27.7275C219.255 27.999 219.534 28.2179 219.85 28.3682C220.166 28.5185 220.512 28.5965 220.862 28.5965C221.212 28.5965 221.558 28.5185 221.874 28.3682C222.19 28.2179 222.469 27.999 222.69 27.7275C223.181 27.045 223.424 26.2154 223.378 25.3761ZM235.126 27.1867C235.136 27.6565 235.036 28.122 234.835 28.5467C234.633 28.9714 234.336 29.3436 233.967 29.6341C233.196 30.2742 232.178 30.5937 230.913 30.5927C228.941 30.5927 227.417 30.0053 226.339 28.8304L227.996 27.441C228.372 27.8283 228.822 28.1356 229.32 28.3444C229.818 28.5533 230.352 28.6594 230.892 28.6563C231.403 28.6828 231.911 28.5568 232.35 28.2941C232.512 28.2021 232.646 28.0696 232.741 27.9098C232.835 27.75 232.886 27.5683 232.889 27.3826C232.897 27.1906 232.84 27.0014 232.728 26.8453C232.616 26.6892 232.455 26.5751 232.27 26.5212C231.641 26.3497 231 26.2251 230.353 26.1487C229.101 25.9664 228.209 25.6924 227.676 25.3266C227.364 25.0998 227.114 24.7979 226.95 24.4488C226.787 24.0997 226.714 23.7149 226.738 23.33C226.736 22.89 226.838 22.4556 227.036 22.0625C227.234 21.6693 227.522 21.3285 227.876 21.068C228.635 20.4615 229.647 20.1577 230.913 20.1564C232.364 20.1265 233.77 20.668 234.826 21.6644L233.528 23.035C232.798 22.3649 231.842 21.9943 230.852 21.9971C229.574 21.9971 228.935 22.3562 228.935 23.0745C228.935 23.4918 229.228 23.779 229.814 23.9362C230.639 24.066 231.458 24.2029 232.27 24.3467C234.175 24.6991 235.127 25.6455 235.127 27.1857" fill="#404041"/>
</g>
<g clip-path="url(#clip3_1_13468)">
<path d="M308.738 24.1459C308.738 23.2904 308.367 21.8654 306.757 21.8654C305.289 21.8654 304.691 23.2048 304.59 24.1459H308.738ZM304.619 26.5396C304.733 27.9932 306.158 28.6771 307.797 28.6771C308.85 28.6913 309.899 28.5372 310.904 28.2209L311.36 30.5869C310.056 31.0657 308.674 31.2976 307.284 31.2709C303.465 31.2709 301.284 29.0625 301.284 25.5417C301.284 22.6917 303.051 19.5417 306.972 19.5417C310.606 19.5417 311.988 22.3632 311.988 25.1569C311.986 25.6199 311.948 26.082 311.874 26.539L304.619 26.5396ZM286.093 25.6142C286.022 23.8902 285.965 21.809 285.965 19.7286H285.893C285.437 21.5527 284.81 23.5902 284.241 25.2865L282.417 30.8732H279.78L278.184 25.3152C277.7 23.6332 277.186 21.5957 276.829 19.7144H276.787C276.702 21.6519 276.63 23.8617 276.517 25.6571L276.246 31.1009H273.125L274.079 16.7644H278.583L280.051 21.5527C280.522 23.2054 280.977 25.0017 281.32 26.6829H281.391C281.819 25.0163 282.317 23.1348 282.816 21.5242L284.383 16.7644H288.801L289.627 31.1009H286.321L286.093 25.6142ZM324.927 22.3794H327.064V19.8H324.927V22.3794ZM326.038 28.4211C324.984 28.4211 324.656 27.7942 324.656 26.4398V16.7644L321.236 17.5484V19.8144H319.925L319.683 22.3938H321.222V26.9821C321.222 28.5642 321.55 29.6473 322.191 30.3169C322.746 30.8865 323.687 31.2857 324.813 31.2857C325.796 31.2857 326.623 31.1715 327.094 30.9865L327.065 28.3357C326.726 28.3937 326.382 28.4224 326.038 28.4215V28.4211ZM317.573 24.175C316.191 23.6902 315.749 23.4196 315.749 22.8921C315.749 22.3088 316.234 21.9661 317.088 21.9661C317.744 21.9849 318.39 22.12 318.998 22.3652L319.226 19.8571C318.489 19.6479 317.726 19.5427 316.96 19.5446C314.181 19.5446 312.385 21.1267 312.385 23.2213C312.371 24.5607 313.255 25.815 315.577 26.599C316.888 27.0409 317.23 27.3115 317.23 27.8819C317.23 28.4523 316.788 28.8221 315.733 28.8221C314.677 28.7791 313.647 28.486 312.726 27.9669L312.099 30.4748C312.954 30.9311 314.266 31.2588 315.733 31.2588C318.954 31.2588 320.608 29.7194 320.608 27.6248C320.609 25.9848 319.711 24.9017 317.573 24.175Z" fill="#0060AF"/>
<path d="M297.459 24.1473C297.459 23.2854 297.086 21.8494 295.463 21.8494C293.984 21.8494 293.381 23.1991 293.28 24.1473H297.459ZM293.309 26.5596C293.424 28.0244 294.86 28.7135 296.511 28.7135C297.573 28.7277 298.63 28.5725 299.642 28.2537L300.101 30.6381C298.786 31.1206 297.394 31.3543 295.994 31.3273C292.146 31.3273 289.948 29.1012 289.948 25.5546C289.948 22.6825 291.728 19.5083 295.678 19.5083C299.34 19.5083 300.733 22.3514 300.733 25.1666C300.731 25.6333 300.693 26.099 300.618 26.5596H293.309ZM329.684 16.7083L332.083 21.0596L329.684 25.425H327.272L329.671 21.0596L327.272 16.7083H329.684Z" fill="#ED1C24"/>
</g>
<path fill-rule="evenodd" clip-rule="evenodd" d="M380.594 19.209V27.5997C380.594 28.3855 380.873 28.639 381.684 28.639H381.836C382.166 28.639 382.47 28.6137 382.698 28.3855C382.901 28.1827 382.926 27.8532 382.926 27.5743V19.7666C382.926 18.3724 382.825 17.5612 382.343 17.0542C381.989 16.6993 381.507 16.5472 380.696 16.5472C378.769 16.5472 377.907 17.4852 376.741 19.6145L372.457 27.4476C372.28 27.7518 372.128 28.0813 372.28 28.3602C372.432 28.6137 372.761 28.639 373.091 28.639H373.42C374.155 28.639 374.485 28.4362 374.891 27.7264L376.107 25.4957H378.642C379.428 25.4957 379.682 25.2168 379.682 24.4056V24.3549C379.682 24.0507 379.656 23.7212 379.428 23.493C379.225 23.2902 378.896 23.2649 378.617 23.2649H377.299L379.149 19.8934C379.707 18.8794 380.011 18.778 380.239 18.778C380.468 18.778 380.594 18.8541 380.594 19.209Z" fill="#1E2A4C"/>
<path fill-rule="evenodd" clip-rule="evenodd" d="M393.573 19.2343C392.179 19.2343 391.393 19.7413 390.962 20.2736C390.405 19.5639 389.543 19.2343 388.351 19.2343C385.842 19.2343 384.523 20.5018 384.523 22.91V27.5743C384.523 28.3602 384.802 28.639 385.588 28.639H385.816C386.602 28.639 386.881 28.3602 386.881 27.5743V22.91C386.881 21.9467 387.109 21.4904 388.351 21.4904C389.593 21.4904 389.796 21.9214 389.796 22.91V27.5743C389.796 28.3602 390.075 28.639 390.861 28.639H391.038C391.824 28.639 392.103 28.3602 392.103 27.5743V22.91C392.103 21.9467 392.331 21.4904 393.573 21.4904C394.79 21.4904 395.018 21.9467 395.018 22.91V27.5743C395.018 28.3602 395.297 28.639 396.083 28.639H396.311C397.097 28.639 397.376 28.3602 397.376 27.5743V22.91C397.376 20.4257 396.134 19.2343 393.573 19.2343Z" fill="#1E2A4C"/>
<path fill-rule="evenodd" clip-rule="evenodd" d="M402.902 26.5603C401.254 26.5603 400.975 25.9773 400.975 24.7605V23.2649C400.975 22.0735 401.28 21.4651 402.902 21.4651C404.524 21.4651 404.803 22.0481 404.803 23.2649V24.7605C404.803 26.028 404.524 26.5603 402.902 26.5603ZM403.257 19.2343C402.294 19.2343 401.533 19.4624 400.975 19.8934V16.9275C400.975 16.1416 400.697 15.8628 399.911 15.8628H399.708C398.922 15.8628 398.643 16.1416 398.643 16.9275V24.8112C398.643 27.3715 400.19 28.8165 402.902 28.8165C405.741 28.8165 407.186 27.4729 407.186 24.8112V23.3156C407.161 20.6285 405.817 19.2343 403.257 19.2343Z" fill="#1E2A4C"/>
<path fill-rule="evenodd" clip-rule="evenodd" d="M412.332 19.2343C412.18 19.2089 412.079 19.2089 411.952 19.2089C409.645 19.2089 408.378 20.4004 408.378 22.5804V27.549C408.378 28.3348 408.656 28.6136 409.442 28.6136H409.67C410.456 28.6136 410.735 28.3348 410.735 27.549V22.7325C410.735 21.8706 410.912 21.4904 411.952 21.4904C412.053 21.4904 412.129 21.4904 412.256 21.5157C412.383 21.5411 412.509 21.5411 412.586 21.5411C413.295 21.5411 413.295 20.9074 413.295 20.6285V20.375C413.295 19.6145 413.067 19.3357 412.332 19.2343Z" fill="#1E2A4C"/>
<path fill-rule="evenodd" clip-rule="evenodd" d="M415.932 23.2903C415.932 22.0988 416.236 21.4904 417.858 21.4904C419.481 21.4904 419.759 22.0735 419.759 23.2903V24.7859C419.759 26.0027 419.481 26.5857 417.858 26.5857C416.211 26.5857 415.932 26.0027 415.932 24.7859V23.2903ZM417.858 19.2343C415.044 19.2343 413.574 20.6285 413.574 23.2903V24.7859C413.574 27.4983 414.968 28.8418 417.858 28.8418C420.647 28.8418 422.117 27.4476 422.117 24.7859V23.2903C422.117 20.5525 420.723 19.2343 417.858 19.2343Z" fill="#1E2A4C"/>
<path fill-rule="evenodd" clip-rule="evenodd" d="M425.286 22.8339H430.33C430.432 22.8339 430.508 22.8086 430.533 22.7832C430.558 22.7325 430.584 22.6818 430.584 22.5804V22.5044C430.584 22.403 430.558 22.3269 430.533 22.3016C430.508 22.2509 430.432 22.2509 430.33 22.2509H425.286V18.778C425.286 18.4231 425.362 18.1442 425.514 17.9668C425.666 17.7893 425.945 17.7133 426.3 17.7133H431.015C431.116 17.7133 431.192 17.6879 431.218 17.6626C431.243 17.6119 431.268 17.5612 431.268 17.4598V17.3837C431.268 17.2823 431.243 17.2063 431.218 17.1809C431.192 17.1302 431.116 17.1302 431.015 17.1302H426.35C425.767 17.1302 425.336 17.257 425.058 17.5358C424.779 17.8147 424.652 18.271 424.652 18.8794V26.8138C424.652 27.4222 424.779 27.8785 425.058 28.1573C425.336 28.4362 425.767 28.5883 426.35 28.5883H431.015C431.116 28.5883 431.192 28.5629 431.218 28.5376C431.243 28.4869 431.268 28.4362 431.268 28.3348V28.2587C431.268 28.1573 431.243 28.0813 431.218 28.0559C431.192 28.0052 431.116 28.0052 431.015 28.0052H426.3C425.945 28.0052 425.691 27.9292 425.514 27.7518C425.362 27.5743 425.26 27.3208 425.286 26.9406V22.8339ZM433.626 20.2229C433.55 20.1215 433.499 20.0455 433.423 20.0201C433.347 19.9694 433.271 19.9694 433.144 19.9694H433.068C432.941 19.9694 432.891 19.9948 432.865 20.0201C432.84 20.0708 432.865 20.1215 432.941 20.2229L434.64 23.0114C434.817 23.2902 434.969 23.5184 435.096 23.6705C435.223 23.8226 435.375 23.9493 435.527 24C435.4 24.0761 435.248 24.1775 435.121 24.3295C434.995 24.4816 434.843 24.7098 434.665 24.9886L432.612 28.2587C432.536 28.3601 432.51 28.4362 432.536 28.4615C432.561 28.5122 432.612 28.5122 432.739 28.5122H432.815C432.941 28.5122 433.017 28.4869 433.093 28.4615C433.169 28.4108 433.22 28.3601 433.296 28.2587L435.4 24.8619C435.502 24.7098 435.603 24.583 435.679 24.4816C435.755 24.4056 435.857 24.3295 435.933 24.3042C436.009 24.2789 436.085 24.2535 436.161 24.2535C436.237 24.2535 436.313 24.2535 436.389 24.3042C436.465 24.3295 436.541 24.3802 436.617 24.4816C436.693 24.5577 436.794 24.7098 436.921 24.8619L439.025 28.2587C439.101 28.3601 439.152 28.4362 439.228 28.4615C439.304 28.5122 439.38 28.5122 439.507 28.5122H439.583C439.71 28.5122 439.76 28.4869 439.786 28.4615C439.811 28.4108 439.786 28.3601 439.71 28.2587L437.682 24.9886C437.504 24.7098 437.352 24.4816 437.225 24.3295C437.099 24.1775 436.947 24.0507 436.82 24C436.972 23.924 437.099 23.8226 437.251 23.6705C437.378 23.5184 437.53 23.2902 437.707 23.0114L439.405 20.2229C439.482 20.1215 439.507 20.0455 439.482 20.0201C439.456 19.9694 439.38 19.9694 439.279 19.9694H439.203C439.076 19.9694 439 19.9948 438.924 20.0201C438.848 20.0708 438.797 20.1215 438.721 20.2229L436.871 23.1888C436.769 23.3663 436.642 23.493 436.516 23.5944C436.389 23.6958 436.262 23.7465 436.135 23.7465C436.009 23.7465 435.882 23.6958 435.755 23.6198C435.628 23.5437 435.502 23.3916 435.4 23.2142L433.626 20.2229ZM441.611 31.833C441.611 31.9344 441.636 32.0105 441.662 32.0358C441.687 32.0865 441.763 32.0865 441.864 32.0865H441.94C442.042 32.0865 442.118 32.0612 442.143 32.0358C442.169 31.9851 442.194 31.9344 442.194 31.833V27.2194C442.321 27.5236 442.523 27.8025 442.777 28.0306C443.03 28.2587 443.335 28.4362 443.715 28.5376C444.095 28.6643 444.551 28.715 445.084 28.715C445.743 28.715 446.301 28.639 446.757 28.4615C447.213 28.2841 447.568 28.0559 447.822 27.7264C448.075 27.4222 448.278 27.042 448.379 26.611C448.481 26.1801 448.557 25.6984 448.557 25.1661V23.3663C448.557 22.8339 448.506 22.3523 448.379 21.9213C448.278 21.4904 448.075 21.1101 447.822 20.8059C447.568 20.5018 447.188 20.2483 446.757 20.0708C446.301 19.8934 445.743 19.8173 445.084 19.8173C444.425 19.8173 443.867 19.8934 443.411 20.0708C442.954 20.2483 442.6 20.4764 442.346 20.8059C442.093 21.1101 441.89 21.4904 441.788 21.9213C441.687 22.3523 441.611 22.8339 441.611 23.3663V31.833ZM445.084 28.132C444.526 28.132 444.044 28.0559 443.69 27.9292C443.309 27.8025 443.03 27.625 442.802 27.3715C442.574 27.118 442.422 26.8138 442.346 26.4336C442.245 26.0533 442.219 25.6477 442.219 25.1407V23.3409C442.219 22.8593 442.27 22.4283 442.346 22.0481C442.447 21.6678 442.6 21.3636 442.802 21.1101C443.005 20.8566 443.309 20.6792 443.69 20.5525C444.07 20.4257 444.526 20.3497 445.084 20.3497C445.641 20.3497 446.123 20.4257 446.478 20.5525C446.858 20.6792 447.137 20.8566 447.365 21.1101C447.593 21.3636 447.746 21.6678 447.822 22.0481C447.923 22.4283 447.948 22.8339 447.948 23.3409V25.1407C447.948 25.6224 447.898 26.0533 447.822 26.4336C447.72 26.7885 447.568 27.118 447.365 27.3715C447.162 27.625 446.858 27.8025 446.478 27.9292C446.123 28.0559 445.641 28.132 445.084 28.132ZM451.218 22.7579C451.218 22.2509 451.269 21.8453 451.371 21.4904C451.472 21.1355 451.675 20.882 451.954 20.7045C452.232 20.5271 452.613 20.4257 453.069 20.4257C453.297 20.4257 453.475 20.4511 453.627 20.4764C453.779 20.5018 453.855 20.5271 453.905 20.5271C453.982 20.5525 454.032 20.5271 454.083 20.5018C454.134 20.4764 454.134 20.4004 454.134 20.299V20.1722C454.134 20.0708 454.108 20.0201 454.083 19.9694C454.058 19.9441 453.982 19.9187 453.905 19.8934C453.855 19.8934 453.753 19.868 453.601 19.8427C453.449 19.8173 453.297 19.8173 453.069 19.8173C452.461 19.8173 451.954 19.9441 451.599 20.1976C451.244 20.4511 450.99 20.7806 450.838 21.2369C450.686 21.6678 450.61 22.1748 450.61 22.7579V28.3094C450.61 28.4108 450.635 28.4869 450.661 28.5122C450.686 28.5629 450.762 28.5629 450.864 28.5629H450.94C451.041 28.5629 451.117 28.5376 451.142 28.5122C451.168 28.4615 451.193 28.4108 451.193 28.3094V22.7579H451.218ZM461.536 23.1381C461.536 22.3776 461.409 21.7692 461.13 21.2876C460.877 20.8059 460.496 20.4257 459.989 20.1976C459.508 19.9441 458.925 19.8427 458.24 19.8427C457.607 19.8427 457.074 19.9441 456.643 20.0962C456.212 20.2736 455.883 20.5271 455.629 20.8313C455.376 21.1608 455.198 21.5157 455.072 21.9467C454.97 22.3776 454.919 22.8339 454.919 23.3663V25.1661C454.919 26.028 455.046 26.7378 455.325 27.2448C455.604 27.7771 455.984 28.1573 456.516 28.3855C457.049 28.6136 457.708 28.7404 458.468 28.7404C459.001 28.7404 459.482 28.6897 459.913 28.6136C460.344 28.5376 460.699 28.4362 461.029 28.3094C461.13 28.2841 461.181 28.2334 461.206 28.1827C461.232 28.132 461.257 28.0559 461.257 27.9799V27.9039C461.257 27.8025 461.257 27.7518 461.206 27.7264C461.181 27.7011 461.105 27.7011 461.029 27.7518C460.851 27.8278 460.648 27.9039 460.37 27.9546C460.116 28.0306 459.812 28.0813 459.482 28.1066C459.153 28.1573 458.798 28.1827 458.443 28.1827C457.759 28.1827 457.201 28.1066 456.77 27.9039C456.339 27.7264 456.009 27.4222 455.807 26.9913C455.604 26.5603 455.503 26.0026 455.503 25.2928V24.583H461.434C461.46 24.3802 461.485 24.1775 461.51 23.9493C461.51 23.6451 461.536 23.417 461.536 23.1381ZM455.503 23.1381C455.503 22.479 455.604 21.9467 455.832 21.5411C456.06 21.1355 456.364 20.8566 456.77 20.6792C457.176 20.5018 457.657 20.4257 458.215 20.4257C458.773 20.4257 459.229 20.5018 459.66 20.6792C460.065 20.8566 460.395 21.1355 460.623 21.5411C460.851 21.9467 460.953 22.479 460.978 23.1381V23.9493H455.528V23.1381H455.503ZM463.437 27.9799C463.437 28.0813 463.462 28.132 463.488 28.1827C463.513 28.2334 463.589 28.2587 463.665 28.2841C463.919 28.3601 464.197 28.4362 464.451 28.4869C464.704 28.5376 464.983 28.5883 465.287 28.639C465.566 28.6643 465.896 28.6897 466.251 28.6897C466.884 28.6897 467.391 28.639 467.822 28.4869C468.253 28.3601 468.583 28.132 468.811 27.8532C469.039 27.5743 469.141 27.1687 469.141 26.7124C469.141 26.3068 469.065 25.9773 468.938 25.6984C468.811 25.4449 468.634 25.2168 468.405 25.0393C468.177 24.8619 467.924 24.7098 467.62 24.5577L465.186 23.3156C464.806 23.1128 464.552 22.91 464.375 22.6565C464.197 22.403 464.121 22.0988 464.121 21.7439C464.121 21.4143 464.197 21.1608 464.35 20.958C464.502 20.7552 464.73 20.6285 465.034 20.5271C465.338 20.4511 465.718 20.4004 466.175 20.4004C466.504 20.4004 466.834 20.4257 467.113 20.4511C467.391 20.5018 467.645 20.5525 467.873 20.6032C468.101 20.6792 468.329 20.7552 468.532 20.8313C468.634 20.8566 468.684 20.882 468.71 20.8566C468.735 20.8313 468.76 20.7806 468.76 20.6792V20.5778C468.76 20.4764 468.76 20.4004 468.71 20.3497C468.684 20.299 468.608 20.2483 468.507 20.2229C468.304 20.1469 468.076 20.0708 467.848 19.9948C467.62 19.9441 467.366 19.8934 467.113 19.8427C466.834 19.792 466.53 19.792 466.2 19.792C465.617 19.792 465.135 19.8427 464.755 19.9948C464.35 20.1215 464.045 20.3243 463.843 20.6285C463.64 20.9073 463.538 21.2876 463.538 21.7439C463.538 22.1495 463.589 22.479 463.716 22.7325C463.843 22.986 463.995 23.2142 464.223 23.3916C464.426 23.5691 464.704 23.7465 464.983 23.8986L467.417 25.1407C467.67 25.2675 467.873 25.4196 468.051 25.5463C468.228 25.6984 468.355 25.8759 468.431 26.0533C468.507 26.2561 468.558 26.4843 468.558 26.7378C468.558 27.0673 468.482 27.3462 468.304 27.549C468.127 27.7518 467.898 27.8785 467.544 27.9799C467.214 28.0559 466.808 28.1066 466.301 28.1066C465.896 28.1066 465.516 28.0813 465.161 28.0306C464.831 27.9799 464.527 27.9292 464.273 27.8785C464.02 27.8278 463.792 27.7518 463.64 27.7011C463.538 27.6757 463.488 27.6757 463.462 27.7011C463.437 27.7264 463.412 27.7771 463.412 27.8785V27.9799H463.437ZM471.067 27.9799C471.067 28.0813 471.093 28.132 471.118 28.1827C471.143 28.2334 471.219 28.2587 471.295 28.2841C471.549 28.3601 471.828 28.4362 472.081 28.4869C472.335 28.5376 472.614 28.5883 472.918 28.639C473.197 28.6643 473.526 28.6897 473.881 28.6897C474.515 28.6897 475.022 28.639 475.453 28.4869C475.884 28.3601 476.213 28.132 476.441 27.8532C476.669 27.5743 476.771 27.1687 476.771 26.7124C476.771 26.3068 476.695 25.9773 476.568 25.6984C476.441 25.4449 476.264 25.2168 476.036 25.0393C475.808 24.8619 475.554 24.7098 475.25 24.5577L472.816 23.3156C472.436 23.1128 472.183 22.91 472.005 22.6565C471.828 22.403 471.752 22.0988 471.752 21.7439C471.752 21.4143 471.828 21.1608 471.98 20.958C472.132 20.7552 472.36 20.6285 472.664 20.5271C472.968 20.4511 473.349 20.4004 473.805 20.4004C474.134 20.4004 474.464 20.4257 474.743 20.4511C475.022 20.5018 475.275 20.5525 475.503 20.6032C475.732 20.6792 475.96 20.7552 476.162 20.8313C476.264 20.8566 476.315 20.882 476.34 20.8566C476.365 20.8313 476.391 20.7806 476.391 20.6792V20.5778C476.391 20.4764 476.391 20.4004 476.34 20.3497C476.315 20.299 476.239 20.2483 476.137 20.2229C475.934 20.1469 475.706 20.0708 475.478 19.9948C475.25 19.9441 474.996 19.8934 474.743 19.8427C474.464 19.792 474.16 19.792 473.83 19.792C473.247 19.792 472.766 19.8427 472.385 19.9948C471.98 20.1215 471.676 20.3243 471.473 20.6285C471.27 20.9073 471.169 21.2876 471.169 21.7439C471.169 22.1495 471.219 22.479 471.346 22.7325C471.473 22.986 471.625 23.2142 471.853 23.3916C472.056 23.5691 472.335 23.7465 472.614 23.8986L475.047 25.1407C475.301 25.2675 475.503 25.4196 475.681 25.5463C475.858 25.6984 475.985 25.8759 476.061 26.0533C476.137 26.2561 476.188 26.4843 476.188 26.7378C476.188 27.0673 476.112 27.3462 475.934 27.549C475.757 27.7518 475.529 27.8785 475.174 27.9799C474.844 28.0559 474.439 28.1066 473.932 28.1066C473.526 28.1066 473.146 28.0813 472.791 28.0306C472.461 27.9799 472.157 27.9292 471.904 27.8785C471.65 27.8278 471.422 27.7518 471.27 27.7011C471.169 27.6757 471.118 27.6757 471.093 27.7011C471.067 27.7264 471.042 27.7771 471.042 27.8785V27.9799H471.067Z" fill="#1E2A4C" stroke="#1E2A4C" stroke-width="0.431147" stroke-miterlimit="10.433"/>
<g clip-path="url(#clip4_1_13468)">
<path d="M512.5 18.4955L516.209 14.0185L514.543 10.3165H516.593L517.493 12.6315L517.569 13.4755H517.8L518.184 12.6315L519.993 10.3165H522.353L518.832 14.4855L520.611 18.4955H518.554L517.554 15.9485L517.478 15.0965H517.242L516.857 15.9485L514.852 18.4955H512.5Z" fill="#1D1D1B"/>
<path d="M521.492 21.5865L523.7 10.3165H525.321V11.1585H525.4C525.639 10.8383 525.951 10.5803 526.311 10.4063C526.67 10.2322 527.067 10.1473 527.466 10.1585C527.833 10.1518 528.197 10.2199 528.536 10.3587C528.876 10.4974 529.184 10.7039 529.441 10.9655C529.729 11.298 529.949 11.6843 530.087 12.102C530.226 12.5197 530.28 12.9607 530.248 13.3995C530.297 14.7282 529.922 16.0381 529.177 17.1395C528.876 17.6046 528.463 17.9865 527.975 18.2499C527.488 18.5132 526.942 18.6496 526.388 18.6465C525.794 18.6618 525.21 18.4912 524.718 18.1585C524.569 18.0614 524.43 17.9502 524.303 17.8265C524.264 17.7951 524.226 17.7617 524.19 17.7265H524.115L523.338 21.5855L521.492 21.5865ZM527.692 16.1135C528.191 15.4435 528.437 14.6184 528.385 13.7845C528.385 12.5705 527.767 11.8545 526.825 11.8545C526.522 11.8669 526.225 11.9489 525.958 12.094C525.692 12.2391 525.462 12.4435 525.287 12.6915C524.792 13.3634 524.549 14.1878 524.601 15.0205C524.601 16.2345 525.201 16.9505 526.146 16.9505C526.452 16.9392 526.751 16.8578 527.02 16.7127C527.29 16.5676 527.522 16.3626 527.7 16.1135H527.692Z" fill="#1D1D1B"/>
<path d="M530.707 18.4955L531.031 16.8005H532.961L533.888 12.0125H532.267L532.606 10.3125H535.464L535.554 11.3905H535.8C535.986 11.0457 536.267 10.7613 536.609 10.571C536.952 10.3807 537.342 10.2924 537.733 10.3165H539.587L539.233 12.0885H537.582C537.044 12.0454 536.511 12.2157 536.097 12.5626C535.684 12.9096 535.424 13.4052 535.373 13.9425L534.815 16.8005H537.522L537.2 18.4955H530.707Z" fill="#1D1D1B"/>
<path d="M540.962 17.7425C540.616 17.4151 540.347 17.016 540.172 16.5732C539.997 16.1303 539.922 15.6546 539.951 15.1795C539.878 13.8361 540.33 12.517 541.211 11.5005C541.609 11.0639 542.097 10.718 542.64 10.4865C543.184 10.2549 543.771 10.1431 544.362 10.1585C544.838 10.1321 545.314 10.2048 545.76 10.3721C546.207 10.5395 546.614 10.7977 546.955 11.1305C547.266 11.4519 547.51 11.8322 547.672 12.2492C547.835 12.6661 547.912 13.1113 547.9 13.5585C547.902 13.9974 547.872 14.4359 547.81 14.8705L547.765 15.0205H541.8C541.767 15.2804 541.794 15.5443 541.879 15.7923C541.963 16.0402 542.103 16.2657 542.288 16.4517C542.472 16.6376 542.696 16.7792 542.944 16.8656C543.191 16.952 543.455 16.981 543.715 16.9505C544.027 16.9591 544.336 16.8939 544.618 16.7602C544.899 16.6266 545.145 16.4283 545.336 16.1815H547.379C547.054 16.8612 546.57 17.4531 545.969 17.9075C545.264 18.4218 544.406 18.6822 543.534 18.6465C542.593 18.6835 541.673 18.3602 540.962 17.7425ZM542.017 13.7095H546.05C546.077 13.4582 546.048 13.2039 545.963 12.9657C545.878 12.7274 545.741 12.5113 545.562 12.3334C545.382 12.1555 545.165 12.0204 544.926 11.9382C544.686 11.856 544.432 11.8287 544.181 11.8585C543.655 11.8657 543.148 12.0542 542.746 12.3923C542.343 12.7303 542.07 13.197 541.972 13.7135L542.017 13.7095Z" fill="#1D1D1B"/>
<path d="M550.055 17.9835C549.692 17.7621 549.391 17.4524 549.18 17.0833C548.969 16.7141 548.855 16.2976 548.849 15.8725V15.7975H550.779C550.892 16.5735 551.585 16.9578 552.859 16.9505C553.726 16.9505 554.254 16.6415 554.254 16.1065C554.254 15.7515 553.741 15.4955 553.054 15.3455C552.677 15.2665 552.304 15.1664 551.938 15.0455C551.556 14.927 551.181 14.7861 550.815 14.6235C550.468 14.4678 550.171 14.2202 549.955 13.9075C549.726 13.5786 549.607 13.1853 549.616 12.7845C549.611 12.4278 549.686 12.0745 549.836 11.7508C549.987 11.4271 550.207 11.1413 550.483 10.9145C551.182 10.3695 552.057 10.1005 552.942 10.1585C553.889 10.0998 554.83 10.3542 555.619 10.8825C555.913 11.0874 556.152 11.3603 556.318 11.6779C556.483 11.9955 556.569 12.3484 556.569 12.7065V12.7825H554.639C554.48 12.1665 553.861 11.8585 552.784 11.8585C552 11.8585 551.548 12.2055 551.548 12.5585C551.548 12.7925 551.706 12.9885 552.03 13.1395C552.399 13.3138 552.786 13.4479 553.184 13.5395C553.636 13.6525 554.084 13.7885 554.548 13.9395C554.986 14.0836 555.384 14.3289 555.709 14.6555C555.865 14.8175 555.987 15.0088 556.069 15.2184C556.15 15.428 556.189 15.6517 556.184 15.8765C556.181 16.5412 555.94 17.183 555.505 17.6855C555.147 18.0315 554.718 18.2967 554.249 18.4632C553.78 18.6297 553.28 18.6935 552.784 18.6505C551.83 18.6851 550.885 18.4542 550.055 17.9835Z" fill="#1D1D1B"/>
<path d="M558.817 17.9835C558.454 17.7621 558.153 17.4524 557.942 17.0833C557.731 16.7141 557.617 16.2976 557.611 15.8725V15.7975H559.541C559.654 16.5735 560.348 16.9578 561.621 16.9505C562.488 16.9505 563.016 16.6415 563.016 16.1065C563.016 15.7515 562.503 15.4955 561.816 15.3455C561.439 15.2665 561.067 15.1664 560.701 15.0455C560.318 14.9268 559.943 14.7859 559.577 14.6235C559.231 14.4678 558.933 14.2201 558.718 13.9075C558.488 13.5787 558.369 13.1854 558.378 12.7845C558.373 12.4278 558.449 12.0746 558.599 11.7509C558.749 11.4272 558.97 11.1414 559.245 10.9145C559.943 10.3709 560.817 10.1019 561.7 10.1585C562.649 10.0989 563.59 10.3533 564.38 10.8825C564.674 11.0874 564.913 11.3602 565.079 11.6778C565.244 11.9955 565.33 12.3484 565.33 12.7065V12.7825H563.4C563.242 12.1665 562.624 11.8585 561.546 11.8585C560.762 11.8585 560.309 12.2055 560.309 12.5585C560.309 12.7925 560.468 12.9885 560.792 13.1395C561.161 13.3138 561.547 13.4479 561.945 13.5395C562.398 13.6525 562.85 13.7885 563.31 13.9395C563.748 14.0838 564.145 14.3291 564.471 14.6555C564.627 14.8176 564.749 15.009 564.83 15.2185C564.912 15.4281 564.951 15.6517 564.946 15.8765C564.943 16.5412 564.702 17.1829 564.267 17.6855C563.909 18.0315 563.48 18.2967 563.011 18.4632C562.542 18.6297 562.042 18.6935 561.546 18.6505C560.592 18.6853 559.647 18.4543 558.817 17.9835Z" fill="#1D1D1B"/>
<path d="M520.115 32.7155L519.007 31.5855L520.507 30.0925H512.629V28.5475H520.429L519.007 27.1225L520.115 25.9995L523.439 29.3165V29.3915L520.115 32.7155Z" fill="#1D1D1B"/>
<path d="M530.926 33.6325C530.676 34.0215 530.331 34.3399 529.923 34.5572C529.515 34.7745 529.058 34.8834 528.596 34.8735C528.151 34.8917 527.708 34.8055 527.302 34.6217C526.897 34.438 526.54 34.1619 526.26 33.8155C525.618 32.8958 525.311 31.7833 525.392 30.6645C525.311 29.5479 525.618 28.4375 526.26 27.5205C526.538 27.1741 526.894 26.8976 527.298 26.7132C527.703 26.5288 528.145 26.4416 528.589 26.4585C529.032 26.4565 529.468 26.5613 529.862 26.7639C530.255 26.9665 530.594 27.261 530.85 27.6225H530.926V23.8025H532.1V34.7215H531.164L531.011 33.6325H530.926ZM528.749 33.7855C529.055 33.7851 529.357 33.7108 529.629 33.569C529.9 33.4271 530.134 33.2218 530.309 32.9705C530.76 32.2896 530.977 31.4799 530.926 30.6645C530.977 29.8488 530.761 29.0386 530.309 28.3575C530.132 28.108 529.898 27.9045 529.627 27.764C529.355 27.6236 529.054 27.5503 528.748 27.5503C528.443 27.5503 528.141 27.6236 527.87 27.764C527.598 27.9045 527.365 28.108 527.188 28.3575C526.73 29.0363 526.511 29.8476 526.564 30.6645C526.511 31.481 526.731 32.292 527.188 32.9705C527.363 33.2217 527.597 33.427 527.869 33.5688C528.14 33.7107 528.442 33.785 528.749 33.7855Z" fill="#1D1D1B"/>
<path d="M535.466 33.7465C534.766 32.88 534.413 31.7838 534.477 30.6715C534.42 29.5545 534.785 28.457 535.5 27.5965C535.817 27.2304 536.211 26.9386 536.654 26.7419C537.097 26.5453 537.578 26.4485 538.062 26.4585C538.538 26.4463 539.012 26.5342 539.453 26.7164C539.893 26.8986 540.29 27.1712 540.619 27.5165C540.96 27.8719 541.227 28.292 541.404 28.7521C541.58 29.2122 541.663 29.703 541.647 30.1955L541.571 30.9715H535.649C535.647 31.7157 535.899 32.4384 536.364 33.0195C536.571 33.2671 536.832 33.4644 537.126 33.5964C537.421 33.7285 537.741 33.7917 538.064 33.7815C538.471 33.7847 538.872 33.6782 539.224 33.4732C539.576 33.2682 539.866 32.9723 540.064 32.6165H541.3C541.063 33.2839 540.621 33.8592 540.037 34.2605C539.457 34.6643 538.765 34.8772 538.058 34.8695C537.569 34.8872 537.083 34.7955 536.635 34.6012C536.186 34.407 535.787 34.1149 535.466 33.7465ZM540.482 29.9635C540.427 29.3117 540.153 28.6976 539.706 28.2205C539.493 28.0014 539.237 27.8287 538.954 27.7134C538.671 27.598 538.367 27.5426 538.062 27.5505C537.757 27.5417 537.454 27.5968 537.172 27.7122C536.891 27.8276 536.636 28.0008 536.425 28.2205C535.978 28.6979 535.704 29.3119 535.649 29.9635H540.482Z" fill="#1D1D1B"/>
<path d="M543.5 34.7215V33.6325H545.913V24.9015H544.2V23.8015H547.084V33.6275H549.345V34.7165L543.5 34.7215Z" fill="#1D1D1B"/>
<path d="M551.916 34.7215V33.6325H554.329V27.7035H552.529V26.6145H555.5V33.6325H557.761V34.7215H551.916ZM554.846 25.4425C554.737 25.4458 554.629 25.4265 554.528 25.3859C554.427 25.3453 554.336 25.2842 554.26 25.2065C554.107 25.053 554.021 24.8449 554.021 24.628C554.021 24.4111 554.107 24.203 554.26 24.0495C554.336 23.9725 554.427 23.9115 554.527 23.8698C554.627 23.8281 554.734 23.8066 554.842 23.8066C554.951 23.8066 555.058 23.8281 555.158 23.8698C555.258 23.9115 555.349 23.9725 555.425 24.0495C555.575 24.207 555.657 24.4177 555.653 24.6355C555.653 24.7415 555.632 24.8465 555.592 24.9445C555.551 25.0424 555.492 25.1315 555.417 25.2064C555.342 25.2814 555.253 25.3408 555.155 25.3813C555.057 25.4218 554.952 25.4426 554.846 25.4425Z" fill="#1D1D1B"/>
<path d="M561.732 34.7215L558.771 26.6145H560.02L562.044 32.3085L562.356 33.4725H562.516L562.844 32.3085L564.853 26.6145H566.1L563.14 34.7215H561.732Z" fill="#1D1D1B"/>
<path d="M568.476 33.7465C567.775 32.8803 567.422 31.784 567.486 30.6715C567.428 29.5549 567.792 28.4574 568.506 27.5965C568.823 27.23 569.218 26.938 569.661 26.7413C570.105 26.5446 570.586 26.448 571.071 26.4585C571.547 26.4464 572.021 26.5343 572.462 26.7165C572.903 26.8987 573.3 27.1713 573.629 27.5165C573.97 27.8719 574.237 28.2921 574.413 28.7522C574.59 29.2123 574.672 29.703 574.656 30.1955L574.58 30.9715H568.658C568.656 31.7156 568.908 32.4381 569.373 33.0195C569.58 33.2671 569.841 33.4644 570.135 33.5964C570.43 33.7284 570.75 33.7917 571.073 33.7815C571.48 33.7847 571.881 33.6782 572.233 33.4732C572.584 33.2682 572.875 32.9723 573.073 32.6165H574.314C574.073 33.2818 573.632 33.856 573.051 34.2596C572.47 34.6632 571.778 34.8764 571.071 34.8695C570.582 34.8878 570.095 34.7964 569.646 34.6021C569.197 34.4078 568.797 34.1154 568.476 33.7465ZM573.492 29.9635C573.436 29.3117 573.162 28.6977 572.715 28.2205C572.502 28.0011 572.246 27.8283 571.963 27.713C571.68 27.5977 571.376 27.5423 571.071 27.5505C570.766 27.5418 570.463 27.597 570.181 27.7124C569.9 27.8277 569.645 28.0008 569.434 28.2205C568.987 28.6981 568.714 29.3119 568.658 29.9635H573.492Z" fill="#1D1D1B"/>
<path d="M576.4 34.7215V33.6325H578.349V27.7035H576.709V26.6145H579.282L579.434 27.7035H579.51C579.739 27.3391 580.064 27.0447 580.45 26.8527C580.835 26.6606 581.266 26.5782 581.695 26.6145H582.867V27.7035H581.695C581.133 27.6874 580.586 27.8859 580.165 28.2585C579.964 28.4319 579.802 28.6455 579.69 28.8854C579.577 29.1254 579.515 29.3864 579.51 29.6515V33.6325H582.01V34.7215H576.4Z" fill="#1D1D1B"/>
<path d="M586.814 37.8415L588.055 34.7215L584.782 26.6145H586.03L588.603 33.0845H588.679L591.252 26.6145H592.5L588.055 37.8415H586.814Z" fill="#1D1D1B"/>
</g>
<path d="M620.5 17.6277H625.575C628.312 17.6277 630.204 18.8931 630.204 21.8178C630.204 24.7425 628.583 26.1435 625.691 26.1435H623.812V30.3723H620.5V17.6277ZM623.812 23.477H624.367C625.568 23.477 626.75 23.477 626.75 21.9211C626.75 20.3651 625.652 20.3006 624.367 20.3006H623.812V23.477Z" fill="#1D1D1B"/>
<path d="M633.109 28.1578L632.231 30.3723H628.712L633.613 17.6277H637.228L642.032 30.3723H638.5L637.674 28.1578H633.109ZM635.427 21.566H635.395L634.026 25.6205H636.783L635.433 21.566H635.427Z" fill="#1D1D1B"/>
<path d="M655.157 27.5638H659.127V30.3723H651.838V17.6277H655.15V27.5703L655.157 27.5638Z" fill="#1D1D1B"/>
<path d="M646.499 27.5638H650.47V30.3723H643.181V17.6277H646.493V27.5703L646.499 27.5638Z" fill="#1D1D1B"/>
<path d="M670.82 17.6277H674.894L676.837 20.9268L678.781 17.6277H682.854L678.781 23.561L683.5 30.3723H679.51L676.837 26.2145L673.913 30.3723H669.903L674.887 23.561L670.814 17.6277H670.82Z" fill="#1D1D1B"/>
<path d="M669.076 20.4297V17.6277H661.826V20.0229L665.758 23.9548L661.826 27.8931V30.3723H669.076V27.5638H665.138V25.3687H668.87V22.5603H665.138V20.4297H669.076Z" fill="#1D1D1B"/>
<path d="M665.022 23.9551L659.767 18.7062V29.2105L665.022 23.9551Z" fill="#E31913"/>
<defs>
<linearGradient id="paint0_linear_1_13468" x1="0.483785" y1="31.7076" x2="27.7927" y2="15.9408" gradientUnits="userSpaceOnUse">
<stop stop-color="#B10034"/>
<stop offset="0.0204657" stop-color="#B10034"/>
<stop offset="0.1523" stop-color="#B10034"/>
<stop offset="0.1766" stop-color="#B70034"/>
<stop offset="0.2697" stop-color="#C80033"/>
<stop offset="0.3857" stop-color="#D30032"/>
<stop offset="0.5483" stop-color="#DA0032"/>
<stop offset="1" stop-color="#DC0032"/>
</linearGradient>
<clipPath id="clip0_1_13468">
<rect width="73" height="32" fill="white" transform="translate(0.499878 8)"/>
</clipPath>
<clipPath id="clip1_1_13468">
<rect width="32" height="42" fill="white" transform="translate(101.5 3)"/>
</clipPath>
<clipPath id="clip2_1_13468">
<rect width="79" height="48" fill="white" transform="translate(161.5)"/>
</clipPath>
<clipPath id="clip3_1_13468">
<rect width="68" height="15" fill="white" transform="translate(268.5 16.5)"/>
</clipPath>
<clipPath id="clip4_1_13468">
<rect width="80" height="28" fill="white" transform="translate(512.5 10)"/>
</clipPath>
</defs>
</svg>
