<svg width="44" height="48" viewBox="0 0 44 48" fill="none" xmlns="http://www.w3.org/2000/svg">
<path d="M39.3346 15.2717L33.9219 18.3216L33.9216 18.3218L24.9969 23.3421L24.9945 23.3434L24.2385 23.7631L24.2385 23.7631L24.2329 23.7663L22.4604 24.7808V20.9853L25.485 19.2803L25.4851 19.2802L37.6184 12.4459L38.388 12.0124L37.6202 11.5757L25.5705 4.72073L25.5704 4.72068C24.4784 4.09972 23.2395 3.77307 21.9787 3.77307C20.7181 3.77307 19.4793 4.09966 18.3874 4.72051C18.3873 4.72056 18.3872 4.72062 18.3871 4.72068L6.28045 11.5804L5.50894 12.0175L6.28227 12.4514L16.4868 18.1772V21.9751L4.61178 15.3073L3.86698 14.8891V15.7433V21.905V22.1979L4.12253 22.3412L11.3615 26.3982V30.2377L4.61143 26.4547L3.86698 26.0375V26.8909V37.1599L0.5 35.2516V11.059L16.6528 1.90353L16.6531 1.90339C18.2714 0.984913 20.1083 0.500977 21.9787 0.500977C23.8492 0.500977 25.6861 0.984913 27.3044 1.90339L27.3047 1.90356L43.4522 11.0539V35.2545L21.9763 47.415L9.92432 40.5816V36.7913L11.6148 37.7494L11.6149 37.7495L21.7295 43.485L21.9762 43.6249L22.2228 43.4849L39.8268 33.4978L40.08 33.3541V33.0629V15.7073V14.8517L39.3346 15.2717Z" fill="#0F92D4" stroke="#0F92D4"/>
</svg>
